<svg xmlns="http://www.w3.org/2000/svg" xmlns:xlink="http://www.w3.org/1999/xlink" width="128" height="128" viewBox="0 0 128 128">
  <defs>
    <clipPath id="clip-path">
      <rect id="Rectángulo_461920" data-name="Rectángulo 461920" width="65.61" height="65.732" fill="#19538d"/>
    </clipPath>
  </defs>
  <g id="Grupo_1212553" data-name="Grupo 1212553" transform="translate(-383.746 -8400)">
    <circle id="Elipse_13890" data-name="Elipse 13890" cx="64" cy="64" r="64" transform="translate(383.746 8400)" fill="#5a9ad7"/>
    <path id="Intersección_1" data-name="Intersección 1" d="M23204.689,11774.869a64,64,0,0,1,106.254-48.067l-104.787,61.753A64.213,64.213,0,0,1,23204.689,11774.869Z" transform="translate(-22820.941 -3310.872)" fill="#19538d"/>
    <circle id="Elipse_13891" data-name="Elipse 13891" cx="54" cy="54" r="54" transform="translate(393.746 8410)" fill="#fff"/>
    <g id="Grupo_1212555" data-name="Grupo 1212555" transform="translate(414.746 8431)">
      <g id="Grupo_1212420" data-name="Grupo 1212420" clip-path="url(#clip-path)">
        <path id="Trazado_1277570" data-name="Trazado 1277570" d="M16.216,18.576v4.846H49.394V18.855a10.271,10.271,0,0,0-2.234-.748C36.336,13.755,41.5-2.372,52.894.443c8.694,2.148,9.286,14.659.837,17.718a10.983,10.983,0,0,0-2.288.695v4.566H56.01c2.682,0,6.058,4.206,6.058,6.8V57.9H65.61v3.821c0,1.473-2.533,4.007-4.007,4.007H54.053V63.869h6.99c1.685,0,3.025-2.339,2.7-3.914H1.864c-.323,1.575,1.017,3.914,2.7,3.914H52.189v1.864H4.007C2.534,65.732,0,63.2,0,61.725V57.9H3.541V37.774h2.05V57.9h2.05V29.666a9.577,9.577,0,0,1,.838-1.4,5.1,5.1,0,0,1,1.865-.931h3.821v-2.05H10.158c-1.125,0-3.191,1.6-3.791,2.546a15.206,15.206,0,0,0-.776,1.834v6.058H3.541V30.412c0-2.7,3.263-6.99,6.058-6.99h4.566V18.855a11,11,0,0,0-2.288-.695C-.048,13.828,7.343-4.605,19.268,1.078c8.186,3.9,6.006,16.68-3.052,17.5m6.225-9.15a7.356,7.356,0,1,0-7.356,7.356,7.356,7.356,0,0,0,7.356-7.356m35.407,0a7.356,7.356,0,1,0-7.356,7.356,7.356,7.356,0,0,0,7.356-7.356M49.394,25.286H16.216v2.05H49.394ZM60.018,57.9V29.666a15.2,15.2,0,0,0-.776-1.834c-.6-.947-2.666-2.546-3.791-2.546H51.444v2.05h3.821a5.094,5.094,0,0,1,1.865.931,9.577,9.577,0,0,1,.838,1.4V57.9ZM14.166,29.386H10.158c-.147,0-.652.876-.652,1.025V57.9H56.1V30.412c0-.149-.505-1.025-.652-1.025H51.444V41.6a5.649,5.649,0,0,1-.773,2.023,4.8,4.8,0,0,1-1.743,1.053H45.666l-.025,2.211c-.075.117-2.183.776-2.57,1.065a13.637,13.637,0,0,0-1.235,1.934c-.314,1.044.393,2.929-.083,3.46L36.768,56.2c-.866.177-1.9-1.408-2.605-1.611a7.567,7.567,0,0,0-2.8.106c-.611.231-1.735,1.488-2.2,1.538l-5.4-2.985c-.266-1.129.363-2.2.011-3.367a14.511,14.511,0,0,0-1.23-1.939c-.4-.322-2.5-.943-2.575-1.06l-.025-2.211H16.682c-.953,0-2.516-1.738-2.516-2.7Zm35.228,0H16.216V42.154a3.119,3.119,0,0,0,.466.466h3.262l.021-2.216a13.365,13.365,0,0,0,2.578-1.055,14.515,14.515,0,0,0,1.23-1.939c.314-1.045-.393-2.929.083-3.46l4.985-2.86c.866-.177,1.9,1.408,2.605,1.611a9.326,9.326,0,0,0,2.842-.061c.512-.206,1.648-1.528,2.158-1.583l5.4,2.989c.273,1.127-.359,2.191-.007,3.363a14.5,14.5,0,0,0,1.23,1.939c.4.322,2.5.943,2.575,1.06l.025,2.211h3.262a3.112,3.112,0,0,0,.466-.466Zm-7.772,11.5a36.232,36.232,0,0,1-1.874-3.25c-.22-.847.248-1.512.145-2.181-.114-.736-2.477-1.617-3.108-2.116-.523-.052-1.4,1.079-2.061,1.228a15.056,15.056,0,0,1-4.1-.106c-.523-.2-1.3-1.172-1.795-1.122l-3.012,1.825c-.317.646.274,1.6.049,2.473-.046.177-1.676,3.048-1.807,3.175-.364.351-2.036.658-2.218,1.187.064.814-.309,3.137.238,3.617.445.39,1.473.459,2.071,1.1a13.318,13.318,0,0,1,1.782,3.454c.027.7-.375,1.4-.175,2.118l3.073,1.669c.5.049,1.271-.924,1.794-1.122a15.043,15.043,0,0,1,4.1-.106c.672.15,1.517,1.27,2.058,1.224l3.076-1.665c.2-.72-.2-1.415-.175-2.118a13.319,13.319,0,0,1,1.782-3.454c.576-.614,2.141-.89,2.3-1.424L43.772,42c-.18-.523-1.768-.822-2.151-1.111" transform="translate(0 0)" fill="#19538d"/>
        <path id="Trazado_1277571" data-name="Trazado 1277571" d="M106.215,314.9v2.052h-1.866l.082-1.877c.238-.342,1.349-.116,1.783-.176" transform="translate(-87.761 -264.827)" fill="#19538d"/>
        <path id="Trazado_1277572" data-name="Trazado 1277572" d="M298.508,316.954h-1.866V314.9c.434.059,1.545-.166,1.783.176Z" transform="translate(-249.486 -264.827)" fill="#19538d"/>
        <path id="Trazado_1277573" data-name="Trazado 1277573" d="M179.27,241.173a6.313,6.313,0,1,1-6.313-6.313,6.313,6.313,0,0,1,6.313,6.313m-1.948-.007a4.363,4.363,0,1,0-4.363,4.363,4.363,4.363,0,0,0,4.363-4.363" transform="translate(-140.154 -197.525)" fill="#19538d"/>
        <path id="Trazado_1277574" data-name="Trazado 1277574" d="M74.426,38.373c.211-.037,1.538,1.128,1.29,1.476L69.9,45.616,66.855,42.74l1.369-1.2,1.517,1.474Z" transform="translate(-56.227 -32.273)" fill="#19538d"/>
        <path id="Trazado_1277575" data-name="Trazado 1277575" d="M294.546,34.8l2.449,2.406,2.584-2.406c.348.484,1.434,1,1.125,1.67-.215.465-2.073,1.814-2.136,2.173l2.406,2.584-1.395,1.394-2.449-2.406-2.584,2.406-1.395-1.394,2.406-2.449-2.406-2.584Z" transform="translate(-246.55 -29.265)" fill="#19538d"/>
      </g>
    </g>
  </g>
</svg>
