<svg xmlns="http://www.w3.org/2000/svg" xmlns:xlink="http://www.w3.org/1999/xlink" width="128" height="128" viewBox="0 0 128 128">
  <defs>
    <clipPath id="clip-path">
      <rect id="Rectángulo_461958" data-name="Rectángulo 461958" width="59.387" height="59.4" fill="#19538d"/>
    </clipPath>
  </defs>
  <g id="Grupo_1212508" data-name="Grupo 1212508" transform="translate(-383.746 -8400)">
    <circle id="Elipse_13890" data-name="Elipse 13890" cx="64" cy="64" r="64" transform="translate(383.746 8400)" fill="#5a9ad7"/>
    <path id="Intersección_1" data-name="Intersección 1" d="M23204.689,11774.869a64,64,0,0,1,106.254-48.067l-104.787,61.753A64.213,64.213,0,0,1,23204.689,11774.869Z" transform="translate(-22820.941 -3310.872)" fill="#19538d"/>
    <circle id="Elipse_13891" data-name="Elipse 13891" cx="54" cy="54" r="54" transform="translate(393.746 8410)" fill="#fff"/>
    <g id="Grupo_1188343" data-name="Grupo 1188343" transform="translate(-0.994 -0.997)">
      <rect id="Rectángulo_459838" data-name="Rectángulo 459838" width="66" height="66" transform="translate(415.74 8432.997)" fill="#fff"/>
      <g id="Grupo_1212510" data-name="Grupo 1212510" transform="translate(418.74 8435.997)">
        <g id="Grupo_1212454" data-name="Grupo 1212454" clip-path="url(#clip-path)">
          <path id="Trazado_1277644" data-name="Trazado 1277644" d="M38.651,1.435c.075.29-.12.337-.251.505a40.165,40.165,0,0,1-3.406,3.344c-.934-.166-1.887-.4-2.835-.477A25.074,25.074,0,0,0,5.151,34.512a25.368,25.368,0,0,0,5.466,11.382c.1.111-.011.324.384.217A18.45,18.45,0,0,1,21.792,32.958l-2.052-2.92A11.53,11.53,0,0,1,33.125,13.282c8.379,2.549,10.91,13.593,4.35,19.425,5.387,2.613,9.753,7.426,10.957,13.4,6.687-7.061,7.969-18.087,4.039-26.884l3.293-3.459c8.388,14.9,1.567,34.208-13.915,41.044A29.772,29.772,0,0,1,.036,28.148C.968,9,20.326-4.565,38.651,1.435m-2.1,22.851a6.864,6.864,0,1,0-6.864,6.864,6.864,6.864,0,0,0,6.864-6.864M28.165,35.877A14.75,14.75,0,0,0,15.263,48.1c-.072.479-.291,1.676-.059,1.987.428.575,3.682,2.223,4.5,2.578a25.09,25.09,0,0,0,24.525-2.584,14.182,14.182,0,0,0-5.074-10.8,14.738,14.738,0,0,0-10.994-3.4" transform="translate(0.001 0)" fill="#19538d"/>
          <path id="Trazado_1277645" data-name="Trazado 1277645" d="M224.021,18.8a14.672,14.672,0,0,0,1.543-1.4l5.732,5.726,9.61-9.6L244.19,16.8,231.3,29.7l-9.017-9.017a22.856,22.856,0,0,0,1.742-1.88" transform="translate(-184.804 -11.238)" fill="#19538d"/>
        </g>
      </g>
    </g>
  </g>
</svg>
