<svg xmlns="http://www.w3.org/2000/svg" xmlns:xlink="http://www.w3.org/1999/xlink" width="128" height="128" viewBox="0 0 128 128">
  <defs>
    <clipPath id="clip-path">
      <rect id="Rectángulo_461482" data-name="Rectángulo 461482" width="63.794" height="50.178" fill="#19538d"/>
    </clipPath>
  </defs>
  <g id="Grupo_1212507" data-name="Grupo 1212507" transform="translate(-383.746 -8400)">
    <circle id="Elipse_13890" data-name="Elipse 13890" cx="64" cy="64" r="64" transform="translate(383.746 8400)" fill="#5a9ad7"/>
    <path id="Intersección_1" data-name="Intersección 1" d="M23204.689,11774.869a64,64,0,0,1,106.254-48.067l-104.787,61.753A64.213,64.213,0,0,1,23204.689,11774.869Z" transform="translate(-22820.941 -3310.872)" fill="#19538d"/>
    <circle id="Elipse_13891" data-name="Elipse 13891" cx="54" cy="54" r="54" transform="translate(393.746 8410)" fill="#fff"/>
    <g id="Grupo_1188343" data-name="Grupo 1188343" transform="translate(-0.994 -0.997)">
      <rect id="Rectángulo_459838" data-name="Rectángulo 459838" width="66" height="66" transform="translate(415.74 8433.997)" fill="#fff"/>
      <g id="Grupo_1212509" data-name="Grupo 1212509" transform="translate(416.74 8441.997)">
        <rect id="Rectángulo_461479" data-name="Rectángulo 461479" width="25.868" height="12.953" transform="translate(18.968 0)" fill="#19538d"/>
        <rect id="Rectángulo_461480" data-name="Rectángulo 461480" width="25.868" height="12.915" transform="translate(18.968 18.317)" fill="#19538d"/>
        <rect id="Rectángulo_461481" data-name="Rectángulo 461481" width="25.865" height="12.899" transform="translate(18.968 36.568)" fill="#19538d"/>
        <g id="Grupo_1211986" data-name="Grupo 1211986">
          <g id="Grupo_1211985" data-name="Grupo 1211985" clip-path="url(#clip-path)">
            <path id="Trazado_1276020" data-name="Trazado 1276020" d="M8.045,141.754l2.639-2.655,6.658,6.657-6.631,6.63-2.67-2.608,2.078-2.1-3.291-.1A7.433,7.433,0,0,1,0,140.206l0-7.718a7.3,7.3,0,0,1,7.048-7.343l9.149-.06.011,3.753-8.914.026a3.744,3.744,0,0,0-3.578,3.83V140a3.734,3.734,0,0,0,3.229,3.806,25.163,25.163,0,0,0,3.148.013Z" transform="translate(0 -102.208)" fill="#19538d"/>
            <path id="Trazado_1276021" data-name="Trazado 1276021" d="M254.1,43.11l6.616-6.653,2.668,2.63-2.06,2.108,3.011-.005a3.651,3.651,0,0,0,3.376-3.727l-.016-7.57a3.768,3.768,0,0,0-3.918-3.685l-8.555.014,0-3.742,8.55-.022a7.459,7.459,0,0,1,7.652,7.354l-.02,8.071a7.305,7.305,0,0,1-7.058,7.082l-3.012.057,2.058,2.076-2.638,2.653Z" transform="translate(-207.628 -18.35)" fill="#19538d"/>
          </g>
        </g>
      </g>
    </g>
  </g>
</svg>
