<svg xmlns="http://www.w3.org/2000/svg" xmlns:xlink="http://www.w3.org/1999/xlink" width="396" height="490" viewBox="0 0 396 490">
  <defs>
    <clipPath id="clip-path">
      <rect id="Rectángulo_461343" data-name="Rectángulo 461343" width="371.333" height="200.012" fill="none"/>
    </clipPath>
    <clipPath id="clip-path-2">
      <rect id="Rectángulo_461344" data-name="Rectángulo 461344" width="133.665" height="101.115" fill="none"/>
    </clipPath>
    <clipPath id="clip-path-3">
      <rect id="Rectángulo_461345" data-name="Rectángulo 461345" width="115.711" height="91.178" fill="none"/>
    </clipPath>
  </defs>
  <g id="Grupo_1212007" data-name="Grupo 1212007" transform="translate(10633 5269)">
    <rect id="Rectángulo_461508" data-name="Rectángulo 461508" width="396" height="490" transform="translate(-10633 -5269)" fill="#dfefff"/>
    <g id="Grupo_1212004" data-name="Grupo 1212004" transform="translate(-11114.324 -11555)">
      <g id="Grupo_1211879" data-name="Grupo 1211879" transform="translate(498 6524)">
        <path id="Trazado_1275451" data-name="Trazado 1275451" d="M0,98.418V235.642H9.54V106.676H361.793V235.642h9.54V98.418Z" transform="translate(0 -46.748)" fill="#addfeb"/>
        <g id="Grupo_1211878" data-name="Grupo 1211878">
          <g id="Grupo_1211877" data-name="Grupo 1211877" clip-path="url(#clip-path)">
            <path id="Trazado_1275452" data-name="Trazado 1275452" d="M568.063,171.759l-8.818.573-3.323-48.988a2.264,2.264,0,0,1,2.139-2.391l4.235-.275a2.28,2.28,0,0,1,2.444,2.093Z" transform="translate(-257.627 -57.319)" fill="#a5ced1"/>
            <path id="Trazado_1275513" data-name="Trazado 1275513" d="M0,0,8.836.013,8.878,28.9.042,28.884Z" transform="translate(298.909 75.083) rotate(-3.798)" fill="#c1e5eb"/>
            <path id="Trazado_1275453" data-name="Trazado 1275453" d="M584.629,171.849l-8.817.573-3.2-47.194a4.076,4.076,0,0,1,3.851-4.3l.568-.037a4.1,4.1,0,0,1,4.4,3.768Z" transform="translate(-265.359 -57.416)" fill="#8dbdbd"/>
            <path id="Trazado_1275514" data-name="Trazado 1275514" d="M0,0,8.836.013l.015,10.538L.015,10.538Z" transform="translate(309.514 101.172) rotate(-3.798)" fill="#bbe1e6"/>
            <path id="Trazado_1275454" data-name="Trazado 1275454" d="M636.318,171.417l-8.782.964L621.906,123.3a1.966,1.966,0,0,1,1.764-2.162l4.808-.528a1.989,1.989,0,0,1,2.21,1.725Z" transform="translate(-288.202 -57.285)" fill="#8dbdbd"/>
            <path id="Trazado_1275515" data-name="Trazado 1275515" d="M0,0,8.834.021l.026,10.54L.026,10.54Z" transform="matrix(0.994, -0.112, 0.112, 0.994, 337.754, 101.32)" fill="#a5ced1"/>
            <path id="Trazado_1275455" data-name="Trazado 1275455" d="M602.768,171.248l-8.786.927-5.435-49.3a1.761,1.761,0,0,1,1.588-1.93l5.225-.552a1.782,1.782,0,0,1,1.972,1.554Z" transform="translate(-272.744 -57.179)" fill="#c1e5eb"/>
            <path id="Trazado_1275516" data-name="Trazado 1275516" d="M0,0,8.835.02,8.84,2.487.006,2.467Z" transform="translate(316.364 70.785) rotate(-6.159)" fill="#a5ced1"/>
            <path id="Trazado_1275517" data-name="Trazado 1275517" d="M0,0,8.835.02,8.84,2.487.006,2.467Z" transform="translate(320.566 108.903) rotate(-6.16)" fill="#a5ced1"/>
            <path id="Trazado_1275456" data-name="Trazado 1275456" d="M653.249,171.951l-8.779.989-5.794-49.265a1.761,1.761,0,0,1,1.574-1.941l5.222-.588a1.782,1.782,0,0,1,1.983,1.54Z" transform="translate(-295.974 -57.538)" fill="#c1e5eb"/>
            <path id="Trazado_1275518" data-name="Trazado 1275518" d="M0,0,8.834.022,8.84,2.489.006,2.467Z" transform="translate(343.3 71.226) rotate(-6.564)" fill="#a5ced1"/>
            <path id="Trazado_1275519" data-name="Trazado 1275519" d="M0,0,8.834.022,8.84,2.489.006,2.467Z" transform="translate(347.78 109.313) rotate(-6.564)" fill="#a5ced1"/>
            <path id="Trazado_1275457" data-name="Trazado 1275457" d="M619.333,171.248l-8.786.927-5.435-49.3a1.761,1.761,0,0,1,1.588-1.93l5.225-.552a1.782,1.782,0,0,1,1.972,1.554Z" transform="translate(-280.42 -57.179)" fill="#bbe1e6"/>
            <path id="Trazado_1275520" data-name="Trazado 1275520" d="M0,0,8.835.02,8.84,2.487.006,2.467Z" transform="translate(325.253 70.785) rotate(-6.159)" fill="#ccedf5"/>
            <path id="Trazado_1275521" data-name="Trazado 1275521" d="M0,0,8.835.02,8.84,2.487.006,2.467Z" transform="translate(329.454 108.903) rotate(-6.16)" fill="#ccedf5"/>
            <path id="Trazado_1275458" data-name="Trazado 1275458" d="M432.534,171.759l-8.818.573-3.323-48.988a2.264,2.264,0,0,1,2.139-2.391l4.235-.275a2.28,2.28,0,0,1,2.444,2.093Z" transform="translate(-194.819 -57.319)" fill="#a5ced1"/>
            <path id="Trazado_1275522" data-name="Trazado 1275522" d="M0,0,8.836.013,8.878,28.9.042,28.884Z" transform="translate(226.188 75.083) rotate(-3.798)" fill="#c1e5eb"/>
            <path id="Trazado_1275459" data-name="Trazado 1275459" d="M448.952,171.7l-8.818.573-3.378-49.791a1.454,1.454,0,0,1,1.373-1.535l5.877-.382a1.463,1.463,0,0,1,1.568,1.343Z" transform="translate(-202.404 -57.265)" fill="#8dbdbd"/>
            <path id="Trazado_1275523" data-name="Trazado 1275523" d="M0,0,8.836.013l.015,10.538L.015,10.538Z" transform="translate(236.793 101.172) rotate(-3.798)" fill="#bbe1e6"/>
            <path id="Trazado_1275460" data-name="Trazado 1275460" d="M500.789,171.417l-8.782.964L486.377,123.3a1.966,1.966,0,0,1,1.764-2.162l4.808-.528a1.989,1.989,0,0,1,2.21,1.725Z" transform="translate(-225.394 -57.285)" fill="#8dbdbd"/>
            <path id="Trazado_1275524" data-name="Trazado 1275524" d="M0,0,8.834.021l.026,10.54L.026,10.54Z" transform="translate(265.033 101.32) rotate(-6.404)" fill="#a5ced1"/>
            <path id="Trazado_1275461" data-name="Trazado 1275461" d="M467.239,171.248l-8.786.927-5.435-49.3a1.761,1.761,0,0,1,1.588-1.93l5.225-.552a1.782,1.782,0,0,1,1.972,1.554Z" transform="translate(-209.936 -57.179)" fill="#a5ced1"/>
            <path id="Trazado_1275525" data-name="Trazado 1275525" d="M0,0,8.835.02,8.84,2.487.006,2.467Z" transform="translate(243.643 70.786) rotate(-6.16)" fill="#8dbdbd"/>
            <path id="Trazado_1275526" data-name="Trazado 1275526" d="M0,0,8.835.02,8.84,2.487.006,2.467Z" transform="translate(247.845 108.903) rotate(-6.16)" fill="#8dbdbd"/>
            <path id="Trazado_1275462" data-name="Trazado 1275462" d="M517.719,171.951l-8.779.989-5.794-49.265a1.761,1.761,0,0,1,1.574-1.941l5.221-.588a1.782,1.782,0,0,1,1.983,1.54Z" transform="translate(-233.166 -57.538)" fill="#c1e5eb"/>
            <path id="Trazado_1275527" data-name="Trazado 1275527" d="M0,0,8.834.022,8.84,2.489.006,2.467Z" transform="translate(270.579 71.226) rotate(-6.564)" fill="#a5ced1"/>
            <path id="Trazado_1275528" data-name="Trazado 1275528" d="M0,0,8.834.022,8.84,2.489.006,2.467Z" transform="translate(275.058 109.313) rotate(-6.564)" fill="#a5ced1"/>
            <path id="Trazado_1275463" data-name="Trazado 1275463" d="M483.8,171.248l-8.786.927-5.435-49.3a1.762,1.762,0,0,1,1.589-1.93l5.225-.552a1.782,1.782,0,0,1,1.972,1.554Z" transform="translate(-217.612 -57.179)" fill="#bbe1e6"/>
            <path id="Trazado_1275529" data-name="Trazado 1275529" d="M0,0,8.835.02,8.84,2.487.006,2.467Z" transform="translate(252.531 70.786) rotate(-6.16)" fill="#ccedf5"/>
            <path id="Trazado_1275530" data-name="Trazado 1275530" d="M0,0,8.835.02,8.84,2.487.006,2.467Z" transform="translate(256.733 108.903) rotate(-6.16)" fill="#ccedf5"/>
            <path id="Trazado_1275464" data-name="Trazado 1275464" d="M29.9,295.43,21.083,296,17.76,247.015a2.264,2.264,0,0,1,2.139-2.391l4.235-.275a2.28,2.28,0,0,1,2.444,2.093Z" transform="translate(-8.228 -116.062)" fill="#a5ced1"/>
            <path id="Trazado_1275531" data-name="Trazado 1275531" d="M0,0,8.836.013,8.878,28.9.042,28.884Z" transform="translate(10.146 140.01) rotate(-3.798)" fill="#c1e5eb"/>
            <path id="Trazado_1275465" data-name="Trazado 1275465" d="M46.318,295.368l-8.818.573L34.123,246.15a1.454,1.454,0,0,1,1.373-1.535l5.877-.382a1.463,1.463,0,0,1,1.568,1.343Z" transform="translate(-15.812 -116.009)" fill="#8dbdbd"/>
            <path id="Trazado_1275532" data-name="Trazado 1275532" d="M0,0,8.836.013l.015,10.538L.015,10.538Z" transform="translate(20.75 166.1) rotate(-3.798)" fill="#bbe1e6"/>
            <path id="Trazado_1275466" data-name="Trazado 1275466" d="M98.154,295.088l-8.782.964-5.631-49.078a1.966,1.966,0,0,1,1.764-2.162l4.809-.528a1.989,1.989,0,0,1,2.209,1.725Z" transform="translate(-38.803 -116.028)" fill="#8dbdbd"/>
            <path id="Trazado_1275533" data-name="Trazado 1275533" d="M0,0,8.834.021l.026,10.54L.026,10.54Z" transform="matrix(0.994, -0.112, 0.112, 0.994, 48.99, 166.248)" fill="#a5ced1"/>
            <path id="Trazado_1275467" data-name="Trazado 1275467" d="M64.6,294.919l-8.786.927-5.435-49.3a1.761,1.761,0,0,1,1.588-1.93l5.225-.551a1.781,1.781,0,0,1,1.972,1.553Z" transform="translate(-23.344 -115.923)" fill="#a5ced1"/>
            <path id="Trazado_1275534" data-name="Trazado 1275534" d="M0,0,8.835.02,8.84,2.487.006,2.467Z" transform="matrix(0.994, -0.107, 0.107, 0.994, 27.6, 135.713)" fill="#8dbdbd"/>
            <path id="Trazado_1275535" data-name="Trazado 1275535" d="M0,0,8.835.02,8.84,2.487.006,2.467Z" transform="translate(31.802 173.831) rotate(-6.16)" fill="#8dbdbd"/>
            <path id="Trazado_1275468" data-name="Trazado 1275468" d="M115.085,295.621l-8.779.989-5.794-49.265a1.761,1.761,0,0,1,1.574-1.941l5.221-.588a1.782,1.782,0,0,1,1.983,1.54Z" transform="translate(-46.575 -116.281)" fill="#c1e5eb"/>
            <path id="Trazado_1275536" data-name="Trazado 1275536" d="M0,0,8.834.022,8.84,2.489.006,2.467Z" transform="translate(54.536 136.153) rotate(-6.564)" fill="#a5ced1"/>
            <path id="Trazado_1275537" data-name="Trazado 1275537" d="M0,0,8.834.022,8.84,2.489.006,2.467Z" transform="translate(59.016 174.241) rotate(-6.564)" fill="#a5ced1"/>
            <path id="Trazado_1275469" data-name="Trazado 1275469" d="M81.169,294.919l-8.786.927-5.435-49.3a1.761,1.761,0,0,1,1.588-1.93l5.225-.551a1.781,1.781,0,0,1,1.972,1.553Z" transform="translate(-31.021 -115.923)" fill="#bbe1e6"/>
            <path id="Trazado_1275538" data-name="Trazado 1275538" d="M0,0,8.835.02,8.84,2.487.006,2.467Z" transform="matrix(0.994, -0.107, 0.107, 0.994, 36.489, 135.713)" fill="#ccedf5"/>
            <path id="Trazado_1275539" data-name="Trazado 1275539" d="M0,0,8.835.02,8.84,2.487.006,2.467Z" transform="translate(40.691 173.831) rotate(-6.16)" fill="#ccedf5"/>
            <path id="Trazado_1275470" data-name="Trazado 1275470" d="M294.709,158.028v-5.793a1.443,1.443,0,0,1,1.458-1.427l49.016-.007a1.978,1.978,0,0,1,2,1.956v4.734a1.977,1.977,0,0,1-2,1.956l-49.016.007a1.443,1.443,0,0,1-1.458-1.426" transform="translate(-136.576 -71.63)" fill="#8dbdbd"/>
            <rect id="Rectángulo_461292" data-name="Rectángulo 461292" width="10.77" height="8.646" transform="translate(161.532 79.177)" fill="#a5ced1"/>
            <path id="Trazado_1275471" data-name="Trazado 1275471" d="M342.221,202.3l.029,5.6a1.538,1.538,0,0,1-1.547,1.529l-48.919.24a1.979,1.979,0,0,1-2.009-1.946l-.024-4.735a1.977,1.977,0,0,1,1.989-1.966l48.919-.24a1.539,1.539,0,0,1,1.563,1.514" transform="translate(-134.278 -95.371)" fill="#8dbdbd"/>
            <rect id="Rectángulo_461293" data-name="Rectángulo 461293" width="10.771" height="8.648" transform="translate(193.766 105.474) rotate(-0.289)" fill="#a5ced1"/>
            <path id="Trazado_1275472" data-name="Trazado 1275472" d="M347.137,184.461l-.009,8.646-50.683-.049a1.772,1.772,0,0,1-1.789-1.754l0-5.142a1.773,1.773,0,0,1,1.793-1.75Z" transform="translate(-136.552 -87.595)" fill="#a5ced1"/>
            <rect id="Rectángulo_461294" data-name="Rectángulo 461294" width="8.647" height="2.521" transform="translate(165.129 105.469) rotate(-89.939)" fill="#8dbdbd"/>
            <rect id="Rectángulo_461295" data-name="Rectángulo 461295" width="8.647" height="2.521" transform="translate(204.313 105.507) rotate(-89.939)" fill="#8dbdbd"/>
            <path id="Trazado_1275473" data-name="Trazado 1275473" d="M349.961,134.768l-.009,8.646-50.684-.049a1.771,1.771,0,0,1-1.788-1.754l0-5.142a1.772,1.772,0,0,1,1.793-1.75Z" transform="translate(-137.86 -63.991)" fill="#a5ced1"/>
            <rect id="Rectángulo_461296" data-name="Rectángulo 461296" width="8.647" height="2.521" transform="translate(166.644 79.379) rotate(-89.939)" fill="#8dbdbd"/>
            <rect id="Rectángulo_461297" data-name="Rectángulo 461297" width="8.647" height="2.521" transform="translate(205.828 79.417) rotate(-89.939)" fill="#8dbdbd"/>
            <path id="Trazado_1275474" data-name="Trazado 1275474" d="M350.134,168.474l.016,6.508a1.08,1.08,0,0,1-1.09,1.072l-49.59.113a1.772,1.772,0,0,1-1.795-1.748l-.012-5.142a1.771,1.771,0,0,1,1.786-1.756l49.591-.113a1.081,1.081,0,0,1,1.1,1.067" transform="translate(-137.945 -79.518)" fill="#bbe1e6"/>
            <rect id="Rectángulo_461298" data-name="Rectángulo 461298" width="2.521" height="8.646" transform="matrix(1, -0.002, 0.002, 1, 166.74, 87.991)" fill="#ccedf5"/>
            <rect id="Rectángulo_461299" data-name="Rectángulo 461299" width="2.521" height="8.646" transform="translate(205.923 87.901) rotate(-0.134)" fill="#ccedf5"/>
            <path id="Trazado_1275475" data-name="Trazado 1275475" d="M81.736,189.083v5.793a1.443,1.443,0,0,1-1.458,1.427l-49.017.007a1.978,1.978,0,0,1-2-1.956V189.62a1.977,1.977,0,0,1,2-1.956l49.016-.007a1.443,1.443,0,0,1,1.458,1.426" transform="translate(-13.561 -89.136)" fill="#8dbdbd"/>
            <rect id="Rectángulo_461300" data-name="Rectángulo 461300" width="10.77" height="8.646" transform="translate(54.007 98.522)" fill="#a5ced1"/>
            <path id="Trazado_1275476" data-name="Trazado 1275476" d="M34.2,144.6l-.029-5.6a1.538,1.538,0,0,1,1.547-1.529l48.919-.24a1.979,1.979,0,0,1,2.009,1.946l.024,4.734a1.977,1.977,0,0,1-1.989,1.966l-48.919.24A1.539,1.539,0,0,1,34.2,144.6" transform="translate(-15.837 -65.183)" fill="#8dbdbd"/>
            <rect id="Rectángulo_461301" data-name="Rectángulo 461301" width="10.771" height="8.648" transform="translate(21.728 72.278) rotate(-0.289)" fill="#a5ced1"/>
            <path id="Trazado_1275477" data-name="Trazado 1275477" d="M29.3,162.611l.009-8.646L80,154.014a1.772,1.772,0,0,1,1.788,1.754l0,5.142a1.772,1.772,0,0,1-1.793,1.75Z" transform="translate(-13.58 -73.133)" fill="#a5ced1"/>
            <rect id="Rectángulo_461302" data-name="Rectángulo 461302" width="8.647" height="2.521" transform="matrix(0.001, -1, 1, 0.001, 58.649, 89.52)" fill="#8dbdbd"/>
            <rect id="Rectángulo_461303" data-name="Rectángulo 461303" width="8.647" height="2.521" transform="translate(19.465 89.482) rotate(-89.939)" fill="#8dbdbd"/>
            <path id="Trazado_1275478" data-name="Trazado 1275478" d="M26.479,212.305l.009-8.646,50.684.049a1.771,1.771,0,0,1,1.788,1.754l0,5.142a1.772,1.772,0,0,1-1.793,1.75Z" transform="translate(-12.271 -96.737)" fill="#a5ced1"/>
            <rect id="Rectángulo_461304" data-name="Rectángulo 461304" width="8.647" height="2.521" transform="matrix(0.001, -1, 1, 0.001, 57.134, 115.61)" fill="#8dbdbd"/>
            <rect id="Rectángulo_461305" data-name="Rectángulo 461305" width="8.647" height="2.521" transform="translate(17.95 115.572) rotate(-89.939)" fill="#8dbdbd"/>
            <path id="Trazado_1275479" data-name="Trazado 1275479" d="M26.3,178.541l-.016-6.508a1.081,1.081,0,0,1,1.09-1.072l49.59-.113a1.772,1.772,0,0,1,1.795,1.748l.012,5.143a1.771,1.771,0,0,1-1.786,1.756l-49.591.113a1.081,1.081,0,0,1-1.1-1.067" transform="translate(-12.181 -81.152)" fill="#bbe1e6"/>
            <rect id="Rectángulo_461306" data-name="Rectángulo 461306" width="2.521" height="8.646" transform="translate(57.027 89.714) rotate(-0.134)" fill="#ccedf5"/>
            <rect id="Rectángulo_461307" data-name="Rectángulo 461307" width="2.521" height="8.646" transform="matrix(1, -0.002, 0.002, 1, 17.844, 89.803)" fill="#ccedf5"/>
            <path id="Trazado_1275480" data-name="Trazado 1275480" d="M201.454,309.365v5.793A1.443,1.443,0,0,1,200,316.585l-49.016.007a1.978,1.978,0,0,1-2-1.956V309.9a1.978,1.978,0,0,1,2-1.956L200,307.939a1.443,1.443,0,0,1,1.458,1.426" transform="translate(-69.041 -146.27)" fill="#8dbdbd"/>
            <rect id="Rectángulo_461308" data-name="Rectángulo 461308" width="10.77" height="8.646" transform="translate(118.244 161.67)" fill="#a5ced1"/>
            <path id="Trazado_1275481" data-name="Trazado 1275481" d="M153.92,264.884l-.029-5.6a1.538,1.538,0,0,1,1.547-1.529l48.919-.24a1.979,1.979,0,0,1,2.009,1.946l.024,4.734a1.977,1.977,0,0,1-1.989,1.966l-48.919.24a1.539,1.539,0,0,1-1.562-1.514" transform="translate(-71.317 -122.316)" fill="#8dbdbd"/>
            <rect id="Rectángulo_461309" data-name="Rectángulo 461309" width="10.771" height="8.648" transform="matrix(1, -0.005, 0.005, 1, 85.965, 135.426)" fill="#a5ced1"/>
            <path id="Trazado_1275482" data-name="Trazado 1275482" d="M149.02,282.893l.009-8.646,50.684.049a1.772,1.772,0,0,1,1.788,1.754l0,5.142a1.772,1.772,0,0,1-1.793,1.75Z" transform="translate(-69.06 -130.266)" fill="#a5ced1"/>
            <rect id="Rectángulo_461310" data-name="Rectángulo 461310" width="8.647" height="2.521" transform="translate(122.886 152.669) rotate(-89.939)" fill="#8dbdbd"/>
            <rect id="Rectángulo_461311" data-name="Rectángulo 461311" width="8.647" height="2.521" transform="translate(83.702 152.631) rotate(-89.939)" fill="#8dbdbd"/>
            <path id="Trazado_1275483" data-name="Trazado 1275483" d="M146.2,332.587l.009-8.646,50.684.049a1.771,1.771,0,0,1,1.788,1.754l0,5.142a1.772,1.772,0,0,1-1.793,1.75Z" transform="translate(-67.751 -153.87)" fill="#a5ced1"/>
            <rect id="Rectángulo_461312" data-name="Rectángulo 461312" width="8.647" height="2.521" transform="translate(121.371 178.758) rotate(-89.939)" fill="#8dbdbd"/>
            <rect id="Rectángulo_461313" data-name="Rectángulo 461313" width="8.647" height="2.521" transform="matrix(0.001, -1, 1, 0.001, 82.187, 178.721)" fill="#8dbdbd"/>
            <path id="Trazado_1275484" data-name="Trazado 1275484" d="M146.018,298.823,146,292.315a1.08,1.08,0,0,1,1.09-1.072l49.59-.113a1.772,1.772,0,0,1,1.795,1.748l.012,5.142a1.772,1.772,0,0,1-1.786,1.756l-49.591.113a1.081,1.081,0,0,1-1.1-1.067" transform="translate(-67.661 -138.285)" fill="#bbe1e6"/>
            <rect id="Rectángulo_461314" data-name="Rectángulo 461314" width="2.521" height="8.646" transform="translate(121.264 152.862) rotate(-0.134)" fill="#ccedf5"/>
            <rect id="Rectángulo_461315" data-name="Rectángulo 461315" width="2.521" height="8.646" transform="matrix(1, -0.002, 0.002, 1, 82.081, 152.952)" fill="#ccedf5"/>
            <rect id="Rectángulo_461316" data-name="Rectángulo 461316" width="8.181" height="133.413" transform="translate(71.13 55.481)" fill="#addfeb"/>
            <rect id="Rectángulo_461317" data-name="Rectángulo 461317" width="8.181" height="133.413" transform="translate(145.215 55.481)" fill="#addfeb"/>
            <rect id="Rectángulo_461318" data-name="Rectángulo 461318" width="8.181" height="133.413" transform="translate(217.482 55.481)" fill="#addfeb"/>
            <rect id="Rectángulo_461319" data-name="Rectángulo 461319" width="8.181" height="133.413" transform="translate(290.203 55.481)" fill="#addfeb"/>
            <rect id="Rectángulo_461320" data-name="Rectángulo 461320" width="366.333" height="10.163" transform="translate(2.5 178.732)" fill="#addfeb"/>
            <rect id="Rectángulo_461321" data-name="Rectángulo 461321" width="366.333" height="10.162" transform="translate(2.5 114.397)" fill="#addfeb"/>
            <path id="Trazado_1275485" data-name="Trazado 1275485" d="M22.089,364.073H8.454L16.18,345.4H29.816Z" transform="translate(-3.918 -164.061)" fill="#addfeb"/>
            <path id="Trazado_1275486" data-name="Trazado 1275486" d="M648.085,364.073H661.72L653.994,345.4H640.358Z" transform="translate(-296.76 -164.061)" fill="#addfeb"/>
            <path id="Trazado_1275487" data-name="Trazado 1275487" d="M580.833,293.961H572v-47.3a4.09,4.09,0,0,1,4.134-4.045h.569a4.09,4.09,0,0,1,4.134,4.045Z" transform="translate(-265.079 -115.243)" fill="#a5ced1"/>
            <rect id="Rectángulo_461322" data-name="Rectángulo 461322" width="8.837" height="28.881" transform="translate(306.917 138.7)" fill="#ccedf5"/>
            <path id="Trazado_1275488" data-name="Trazado 1275488" d="M613.574,293.961h-8.837v-47.3a4.09,4.09,0,0,1,4.134-4.045h.569a4.09,4.09,0,0,1,4.134,4.045Z" transform="translate(-280.252 -115.243)" fill="#a5ced1"/>
            <rect id="Rectángulo_461323" data-name="Rectángulo 461323" width="8.837" height="10.537" transform="translate(324.485 164.855)" fill="#8dbdbd"/>
            <path id="Trazado_1275489" data-name="Trazado 1275489" d="M637.181,294.308l-8.99.056-7.117-47.779a3.07,3.07,0,0,1,2.643-3.468l2.558-.365a3.116,3.116,0,0,1,3.544,2.586Z" transform="translate(-287.807 -115.291)" fill="#a5ced1"/>
            <path id="Trazado_1275540" data-name="Trazado 1275540" d="M0,0,8.833.027,8.866,10.57.033,10.543Z" transform="translate(338.34 165.355) rotate(-8.291)" fill="#8dbdbd"/>
            <path id="Trazado_1275490" data-name="Trazado 1275490" d="M564.584,293.961h-8.837v-47.3a4.09,4.09,0,0,1,4.134-4.045h.569a4.09,4.09,0,0,1,4.134,4.045Z" transform="translate(-257.548 -115.243)" fill="#c1e5eb"/>
            <rect id="Rectángulo_461325" data-name="Rectángulo 461325" width="8.837" height="2.466" transform="translate(298.199 134.251)" fill="#a5ced1"/>
            <rect id="Rectángulo_461326" data-name="Rectángulo 461326" width="8.837" height="2.466" transform="translate(298.199 172.59)" fill="#a5ced1"/>
            <path id="Trazado_1275491" data-name="Trazado 1275491" d="M655.586,293.039l-8.693,1.552-8.68-46.529a4.052,4.052,0,0,1,3.324-4.705l.56-.1a4.128,4.128,0,0,1,4.809,3.253Z" transform="translate(-295.734 -115.514)" fill="#c1e5eb"/>
            <path id="Trazado_1275541" data-name="Trazado 1275541" d="M0,0,8.831.034,8.84,2.5.01,2.468Z" transform="translate(342.999 135.334) rotate(-10.351)" fill="#a5ced1"/>
            <path id="Trazado_1275542" data-name="Trazado 1275542" d="M0,0,8.831.034,8.84,2.5.01,2.468Z" transform="translate(350.035 173.049) rotate(-10.351)" fill="#a5ced1"/>
            <path id="Trazado_1275492" data-name="Trazado 1275492" d="M597.324,293.961h-8.837v-47.3a4.09,4.09,0,0,1,4.134-4.045h.569a4.09,4.09,0,0,1,4.134,4.045Z" transform="translate(-272.721 -115.243)" fill="#bbe1e6"/>
            <rect id="Rectángulo_461329" data-name="Rectángulo 461329" width="8.837" height="2.466" transform="translate(315.766 134.251)" fill="#ccedf5"/>
            <path id="Trazado_1275493" data-name="Trazado 1275493" d="M173.117,171.42H164.28v-47.3a4.09,4.09,0,0,1,4.134-4.045h.569a4.09,4.09,0,0,1,4.134,4.045Z" transform="translate(-76.132 -57.036)" fill="#a5ced1"/>
            <rect id="Rectángulo_461330" data-name="Rectángulo 461330" width="8.837" height="28.881" transform="translate(88.148 74.365)" fill="#ccedf5"/>
            <path id="Trazado_1275494" data-name="Trazado 1275494" d="M205.857,171.42H197.02v-47.3a4.09,4.09,0,0,1,4.134-4.045h.569a4.09,4.09,0,0,1,4.134,4.045Z" transform="translate(-91.304 -57.036)" fill="#a5ced1"/>
            <rect id="Rectángulo_461331" data-name="Rectángulo 461331" width="8.837" height="10.537" transform="translate(105.716 100.521)" fill="#8dbdbd"/>
            <path id="Trazado_1275495" data-name="Trazado 1275495" d="M229.464,171.767l-8.99.056-7.117-47.779A3.07,3.07,0,0,1,216,120.577l2.558-.365A3.116,3.116,0,0,1,222.1,122.8Z" transform="translate(-98.86 -57.085)" fill="#a5ced1"/>
            <path id="Trazado_1275543" data-name="Trazado 1275543" d="M0,0,8.833.027,8.866,10.57.033,10.542Z" transform="translate(119.57 101.02) rotate(-8.291)" fill="#8dbdbd"/>
            <path id="Trazado_1275496" data-name="Trazado 1275496" d="M156.867,171.42H148.03v-47.3a4.09,4.09,0,0,1,4.134-4.045h.569a4.09,4.09,0,0,1,4.134,4.045Z" transform="translate(-68.601 -57.036)" fill="#c1e5eb"/>
            <rect id="Rectángulo_461333" data-name="Rectángulo 461333" width="8.837" height="2.466" transform="translate(79.429 69.917)" fill="#a5ced1"/>
            <rect id="Rectángulo_461334" data-name="Rectángulo 461334" width="8.837" height="2.466" transform="translate(79.429 108.255)" fill="#a5ced1"/>
            <path id="Trazado_1275497" data-name="Trazado 1275497" d="M247.869,170.5l-8.693,1.552-8.68-46.529a4.052,4.052,0,0,1,3.324-4.705l.56-.1a4.128,4.128,0,0,1,4.809,3.252Z" transform="translate(-106.787 -57.308)" fill="#c1e5eb"/>
            <path id="Trazado_1275544" data-name="Trazado 1275544" d="M0,0,8.831.034,8.84,2.5.01,2.468Z" transform="translate(124.229 70.999) rotate(-10.351)" fill="#a5ced1"/>
            <path id="Trazado_1275545" data-name="Trazado 1275545" d="M0,0,8.831.034,8.84,2.5.01,2.468Z" transform="translate(131.265 108.715) rotate(-10.351)" fill="#a5ced1"/>
            <path id="Trazado_1275498" data-name="Trazado 1275498" d="M189.608,171.42h-8.837v-47.3a4.09,4.09,0,0,1,4.134-4.045h.569a4.09,4.09,0,0,1,4.134,4.045Z" transform="translate(-83.774 -57.036)" fill="#bbe1e6"/>
            <rect id="Rectángulo_461337" data-name="Rectángulo 461337" width="8.837" height="2.466" transform="translate(96.996 69.917)" fill="#ccedf5"/>
            <path id="Trazado_1275499" data-name="Trazado 1275499" d="M84.953,71.47H23.312V60.67H84.953a5.4,5.4,0,1,1,0,10.8" transform="translate(-10.803 -28.818)" fill="#a5ced1"/>
            <path id="Trazado_1275500" data-name="Trazado 1275500" d="M52.622,71.4H23.313V62.088H52.622a4.657,4.657,0,1,1,0,9.311" transform="translate(-10.804 -29.491)" fill="#f6fdff"/>
            <path id="Trazado_1275501" data-name="Trazado 1275501" d="M24.457,91.464H58.712a2.2,2.2,0,0,1-2.226-2.178v-5.64a2.2,2.2,0,0,1,2.226-2.178H24.457a2.2,2.2,0,0,0-2.226,2.178v5.64a2.2,2.2,0,0,0,2.226,2.178" transform="translate(-10.302 -38.697)" fill="#8dbdbd"/>
            <path id="Trazado_1275502" data-name="Trazado 1275502" d="M85.927,83.645v5.64a2.2,2.2,0,0,0,2.226,2.178h30.059v-10H88.153a2.2,2.2,0,0,0-2.226,2.178" transform="translate(-39.821 -38.696)" fill="#c1e5eb"/>
            <path id="Trazado_1275503" data-name="Trazado 1275503" d="M90.106,83.067h29.179v8.317H90.106a1.846,1.846,0,0,1-1.866-1.825V84.892a1.846,1.846,0,0,1,1.866-1.825" transform="translate(-40.893 -39.456)" fill="#e0f4fb"/>
            <path id="Trazado_1275504" data-name="Trazado 1275504" d="M79.859,49.282H28.417a4.808,4.808,0,0,1-4.86-4.755V41.467a4.809,4.809,0,0,1,4.86-4.755H79.859Z" transform="translate(-10.917 -17.438)" fill="#8dbdbd"/>
            <path id="Trazado_1275505" data-name="Trazado 1275505" d="M29.866,38.813a3.84,3.84,0,0,0-3.89,3.788v2.957a3.84,3.84,0,0,0,3.89,3.788h20.3V38.813Z" transform="translate(-12.038 -18.436)" fill="#f6fdff"/>
            <rect id="Rectángulo_461338" data-name="Rectángulo 461338" width="30.871" height="10.534" transform="translate(38.127 20.376)" fill="#e0f4fb"/>
            <path id="Trazado_1275506" data-name="Trazado 1275506" d="M536.289,90.606l-.018-7.655a1.081,1.081,0,0,1,1.09-1.072l56.552-.129a1.772,1.772,0,0,1,1.795,1.748l.015,6.29a1.772,1.772,0,0,1-1.787,1.756l-56.552.129a1.082,1.082,0,0,1-1.1-1.067" transform="translate(-248.523 -38.831)" fill="#a5ced1"/>
            <rect id="Rectángulo_461339" data-name="Rectángulo 461339" width="2.856" height="9.794" transform="translate(336.367 42.939) rotate(-0.129)" fill="#ccedf5"/>
            <rect id="Rectángulo_461340" data-name="Rectángulo 461340" width="2.855" height="9.794" transform="matrix(1, -0.002, 0.002, 1, 291.986, 43.041)" fill="#ccedf5"/>
            <path id="Trazado_1275507" data-name="Trazado 1275507" d="M530.36,71.971l-.018-7.655a1.081,1.081,0,0,1,1.09-1.072l56.551-.129a1.772,1.772,0,0,1,1.795,1.748l.015,6.29a1.772,1.772,0,0,1-1.787,1.756l-56.552.129a1.082,1.082,0,0,1-1.1-1.067" transform="translate(-245.775 -29.979)" fill="#bbe1e6"/>
            <rect id="Rectángulo_461341" data-name="Rectángulo 461341" width="2.856" height="9.794" transform="translate(333.186 33.156) rotate(-0.129)" fill="#ccedf5"/>
            <rect id="Rectángulo_461342" data-name="Rectángulo 461342" width="2.856" height="9.794" transform="matrix(1, -0.002, 0.002, 1, 288.804, 33.257)" fill="#ccedf5"/>
            <path id="Trazado_1275508" data-name="Trazado 1275508" d="M519.633,30.509a17.541,17.541,0,0,1-13.2-2.4C499.638,23.864,499.45,4.3,499.45,4.3a30.637,30.637,0,0,1,20.183,10.151c6.225,7.013,0,16.057,0,16.057" transform="translate(-231.459 -2.043)" fill="#addfeb"/>
            <path id="Trazado_1275509" data-name="Trazado 1275509" d="M528.328,44.526s-8.488-22.7-20.089-32.667" transform="translate(-235.532 -5.633)" fill="none" stroke="#8dbdbd" stroke-linecap="round" stroke-miterlimit="10" stroke-width="0.5"/>
            <path id="Trazado_1275510" data-name="Trazado 1275510" d="M543.827,25.86s-5.584-7.282-.186-17.17C549.151-1.4,565.654.075,565.654.075s-.163,11.792-6.033,18.493-12.7,7.771-15.794,7.292" transform="translate(-250.848 0)" fill="#addfeb"/>
            <path id="Trazado_1275511" data-name="Trazado 1275511" d="M538.412,38.732s7.631-22.225,19.7-32.468" transform="translate(-249.515 -2.975)" fill="none" stroke="#8dbdbd" stroke-linecap="round" stroke-miterlimit="10" stroke-width="0.5"/>
            <path id="Trazado_1275512" data-name="Trazado 1275512" d="M542.2,60.274H514.249l1.414,21.486h25.121Z" transform="translate(-238.317 -28.63)" fill="#a2d7e0"/>
          </g>
        </g>
      </g>
    </g>
    <g id="Grupo_1212005" data-name="Grupo 1212005" transform="translate(-10629.832 -4916.526)">
      <g id="Grupo_1211880" data-name="Grupo 1211880" clip-path="url(#clip-path-2)">
        <path id="Trazado_1275546" data-name="Trazado 1275546" d="M119.056,114.123l12.872,21.81a6.524,6.524,0,0,1-.414,7.25l-1.96,2.593a5.641,5.641,0,0,1-8.993.011L106.06,126.7Z" transform="translate(-67.825 -72.982)" fill="#df9a7d"/>
        <path id="Trazado_1275547" data-name="Trazado 1275547" d="M125.968,125.508l-8.605,16.019-3.839-10.591Z" transform="translate(-72.598 -80.262)" fill="#d97f76"/>
        <path id="Trazado_1275548" data-name="Trazado 1275548" d="M80.47,59.036h3.045l4.274.974a14.472,14.472,0,0,1,9.34,6.913l8.76,15.282L91.459,94.517Z" transform="translate(-51.461 -37.754)" fill="#4dd0e1"/>
        <path id="Trazado_1275549" data-name="Trazado 1275549" d="M108.932,88.783l11.32,15.689-8.341,7.149Z" transform="translate(-69.662 -56.777)" fill="#3c6ae5"/>
        <path id="Trazado_1275550" data-name="Trazado 1275550" d="M133.758,47.977l-3.086-3.009,23.187-26.361,3.724,2.576Z" transform="translate(-83.565 -11.899)" fill="#fff"/>
        <path id="Trazado_1275551" data-name="Trazado 1275551" d="M142.684,56.24l19.752-21.395L159.454,19.5,133.588,47.733Z" transform="translate(-85.43 -12.469)" fill="#19538d"/>
        <path id="Trazado_1275552" data-name="Trazado 1275552" d="M162.436,62.07,133.588,74.958l9.1,8.507Z" transform="translate(-85.43 -39.694)" fill="#42747b"/>
        <path id="Trazado_1275553" data-name="Trazado 1275553" d="M144.766,80.8s-.339-3.694,4.972-5.715l.864-1.109-1.946-2.161-1.668-.72a1.776,1.776,0,0,1,.042-2.422.72.72,0,0,1,.991-.043l1.706.481a2.376,2.376,0,0,1,1.058.63l1.942,2-1.644-3.356-1.742-1.138a1.236,1.236,0,0,1,0-1.906,1.3,1.3,0,0,1,1.543-.078l1.949,1.3,2.861,3.818-.743-3.8-1.588-1.494a1.459,1.459,0,0,1,.071-2.188.935.935,0,0,1,1.22.025l2.884,2.583.83,3,.474-3.342-1.225-1.7A1.716,1.716,0,0,1,158.1,61a1.075,1.075,0,0,1,1.535.435l1.71,3.45.45,8.025a13.473,13.473,0,0,1-3.573,9.918l-2.6,2.8-.382,17.919a8.317,8.317,0,0,1-9.515,8.063l-.247-.036a8.6,8.6,0,0,1-6.977-11.126L144.766,80.8" transform="translate(-88.31 -38.904)" fill="#df9a7d"/>
        <line id="Línea_3305" data-name="Línea 3305" x2="2.036" y2="2.137" transform="translate(63.533 31.859)" fill="none" stroke="#252348" stroke-linecap="round" stroke-linejoin="round" stroke-width="0.5"/>
        <line id="Línea_3306" data-name="Línea 3306" x2="2.137" y2="3.054" transform="translate(65.976 29.62)" fill="none" stroke="#252348" stroke-linecap="round" stroke-linejoin="round" stroke-width="0.5"/>
        <line id="Línea_3307" data-name="Línea 3307" x2="0.6" y2="2.57" transform="translate(70.058 29.594)" fill="none" stroke="#252348" stroke-linecap="round" stroke-linejoin="round" stroke-width="0.5"/>
        <line id="Línea_3308" data-name="Línea 3308" x1="4.369" y2="14.696" transform="translate(51.152 44.451)" fill="none" stroke="#252348" stroke-linecap="round" stroke-linejoin="round" stroke-width="0.5"/>
        <path id="Trazado_1275554" data-name="Trazado 1275554" d="M250.291,202.263l5.958,11.121,18.072,9.93a8.518,8.518,0,0,0,2.333.887c2.845.624,4.779.336,4.779.827,0,0,.037,3.251-1.155,3.846s-5.56,0-5.56,0-11.121,1.986-18.469-.993c-9.334,2.78-13.5,1.787-16.085.2s-1.986-8.937-1.986-8.937l-6.951-10.724Z" transform="translate(-147.869 -129.347)" fill="#e4b482"/>
        <path id="Trazado_1275555" data-name="Trazado 1275555" d="M352.424,262.87l6.413.611s.713,3.054-1.425,4.275" transform="translate(-225.376 -168.106)" fill="none" stroke="#252348" stroke-linecap="round" stroke-linejoin="round" stroke-width="0.5"/>
        <path id="Trazado_1275556" data-name="Trazado 1275556" d="M250.291,202.263l-19.065,6.156,6.951,10.724s-.6,7.348,1.986,8.937q.319.2.673.378l15.412-15.074Z" transform="translate(-147.869 -129.347)" fill="#dd8a76"/>
        <path id="Trazado_1275557" data-name="Trazado 1275557" d="M69.82,149.574l30.248-34.818a21.565,21.565,0,0,1,32.907,3.5l21.245,31.715-20.653,12.114-16.483-22.242-22.639,27.8Z" transform="translate(-44.65 -69.509)" fill="#7b5809"/>
        <path id="Trazado_1275558" data-name="Trazado 1275558" d="M203.342,198.964l28.093,13.47-12.48,7.379Z" transform="translate(-130.037 -127.238)" fill="#4e390a"/>
        <line id="Línea_3309" data-name="Línea 3309" x1="9.135" y1="11.916" transform="translate(66.477 62.787)" fill="none" stroke="#252348" stroke-linecap="round" stroke-linejoin="round" stroke-width="0.5"/>
        <line id="Línea_3310" data-name="Línea 3310" x2="7.944" y2="4.965" transform="translate(64.491 65.369)" fill="none" stroke="#252348" stroke-linecap="round" stroke-linejoin="round" stroke-width="0.5"/>
        <path id="Trazado_1275559" data-name="Trazado 1275559" d="M25.374,194.551s-2.582,5.759-1.986,18.469,6.355,12.114,11.32,12.511l51.864-.64a14.65,14.65,0,0,0-.253-29.294Z" transform="translate(-14.899 -124.416)" fill="#7a4f1e"/>
        <path id="Trazado_1275560" data-name="Trazado 1275560" d="M38.481,195.881l-13.185-.8c-.424,1.081-2.442,6.885-1.908,18.278.6,12.71,6.355,12.114,11.32,12.511l26.958-.332c-19.171-8.215-23.185-29.655-23.185-29.655" transform="translate(-14.899 -124.753)" fill="#4e390a"/>
        <path id="Trazado_1275561" data-name="Trazado 1275561" d="M28.239,52.058S20.3,53.514,15,55.1a2.533,2.533,0,0,0-2.1,2.709l2.628,48.394,39.983-5.958s-7.726-33.29-8.52-36.467A34.747,34.747,0,0,0,44.609,56.9a4.662,4.662,0,0,0-2.733-2.059Z" transform="translate(-8.233 -33.291)" fill="#4dd0e1"/>
        <path id="Trazado_1275562" data-name="Trazado 1275562" d="M109.16,97.315l-6.223-26.743s-1.153-4.09-2.033-5.09" transform="translate(-64.529 -41.876)" fill="none" stroke="#252348" stroke-linecap="round" stroke-linejoin="round" stroke-width="0.5"/>
        <path id="Trazado_1275563" data-name="Trazado 1275563" d="M43.014,99.76C39.175,93.934,30.04,75.929,30.04,75.929L16.517,79.111l1.343,42.362,28.216-4.2c5.083-1.247,8.721-2.15,8.721-2.15s-7.944-9.532-11.783-15.358" transform="translate(-10.563 -48.557)" fill="#3c6ae5"/>
        <path id="Trazado_1275564" data-name="Trazado 1275564" d="M62.234,143.606c-1.389-.05-3.8-.46-5.192-.6l-18.971-1.9-3.31-10.459-15.623,9c.076.227,1.539,5.876,2.778,10.665A8.907,8.907,0,0,0,30.542,157l29.657-.667,3.766-.305Z" transform="translate(-12.239 -83.551)" fill="#e4b482"/>
        <path id="Trazado_1275565" data-name="Trazado 1275565" d="M129.083,165.741l6.718.712c3.664.509,6.311.713,8.957,2.239l4.784,2.341,7.939,3.766s.305,1.934-1.221,2.545a6.07,6.07,0,0,1-3.359.916,2.8,2.8,0,0,1-1.934.407,59.1,59.1,0,0,1-6.922-.407,24.056,24.056,0,0,1-10.79.407l-3.969.1Z" transform="translate(-82.549 -105.992)" fill="#e4b482"/>
        <path id="Trazado_1275566" data-name="Trazado 1275566" d="M182.165,183.811l7.939,3.359a1.429,1.429,0,0,1-.814,2.239" transform="translate(-116.495 -117.547)" fill="none" stroke="#252348" stroke-linecap="round" stroke-linejoin="round" stroke-width="0.5"/>
        <path id="Trazado_1275567" data-name="Trazado 1275567" d="M176.236,186.634l8.55,3.054s.814,1.832-1.73,2.036" transform="translate(-112.703 -119.353)" fill="none" stroke="#252348" stroke-linecap="round" stroke-linejoin="round" stroke-width="0.5"/>
        <path id="Trazado_1275568" data-name="Trazado 1275568" d="M160.658,191.152l9.161,2.036s.611,1.832-2.239,1.73-6.922-.509-6.922-.509-3.664,1.12-5.6.814" transform="translate(-99.161 -122.242)" fill="none" stroke="#252348" stroke-linecap="round" stroke-linejoin="round" stroke-width="0.5"/>
        <path id="Trazado_1275569" data-name="Trazado 1275569" d="M21.125,151.535l16.681-7.249-2.085-6.752-16.582,6.52Z" transform="translate(-12.239 -87.954)" fill="#dd8a76"/>
        <path id="Trazado_1275570" data-name="Trazado 1275570" d="M6.449,96.776l19.787-4.261L20.6,65.871c-1-4.1-5.537-6.882-9.751-7.015L8.72,58.98c-4.791.213-9.828,5.339-8.505,11.314Z" transform="translate(0 -37.638)" fill="#4dd0e1"/>
        <path id="Trazado_1275571" data-name="Trazado 1275571" d="M117.728,194.557a11.662,11.662,0,0,1-3.562-3.97l-9.365,4.377Z" transform="translate(-67.02 -121.881)" fill="#dd8a76"/>
        <path id="Trazado_1275572" data-name="Trazado 1275572" d="M65.555,36.613l.819-9.323L58.287,20.5,52.648,31.67l.262.121-2.414.385c.4,2.118,2.672,5.989,8.952,7.245,5.3,1.059,7.443.251,6.62-1.853a4.02,4.02,0,0,0-.512-.955" transform="translate(-32.292 -13.108)" fill="#e4b482"/>
        <path id="Trazado_1275573" data-name="Trazado 1275573" d="M67.435,20.5l8.087,6.793-.795,6.255c-2.327.53-9.249-1.37-9.927-7.477Z" transform="translate(-41.44 -13.108)" fill="#dd8a76"/>
        <path id="Trazado_1275574" data-name="Trazado 1275574" d="M76.841,2.972a5.264,5.264,0,0,1,4.316,3.494A12.787,12.787,0,0,1,80.9,14.48c-1.7,5.507-8.1,4.486-10.533,1.038-1.135-1.606-2.067-2.788-1.788-4.436l.945-5.591a3.567,3.567,0,0,1,3.966-2.944Z" transform="translate(-43.826 -1.611)" fill="#e4b482"/>
        <path id="Trazado_1275575" data-name="Trazado 1275575" d="M80.056,5.3l-7-.819s-3.5,5.364-6.184,5.513a10.554,10.554,0,0,1,.36-7.075C69.316-1.6,80.071-.92,80.056,5.3" transform="translate(-42.473 0)" fill="#252348"/>
        <path id="Trazado_1275576" data-name="Trazado 1275576" d="M69.528,15.677l-.877,4.737s-2.423-.514-2.037-3.7c.338-2.792,2.914-1.034,2.914-1.034" transform="translate(-42.573 -9.676)" fill="#e4b482"/>
        <path id="Trazado_1275577" data-name="Trazado 1275577" d="M69.692,20.6s-.588-.891.181-1.352c0,0,.526-1.657-.72-1.389" transform="translate(-44.223 -11.399)" fill="none" stroke="#252348" stroke-linecap="round" stroke-linejoin="round" stroke-width="0.5"/>
        <path id="Trazado_1275578" data-name="Trazado 1275578" d="M100.745,26.346a.447.447,0,1,0,.191-.6.447.447,0,0,0-.191.6" transform="translate(-64.394 -16.431)" fill="#252348"/>
        <path id="Trazado_1275579" data-name="Trazado 1275579" d="M90.537,25.175a.447.447,0,1,0,.191-.6.447.447,0,0,0-.191.6" transform="translate(-57.866 -15.682)" fill="#252348"/>
        <path id="Trazado_1275580" data-name="Trazado 1275580" d="M96.72,25.465l.443,3.043-1.183-.583" transform="translate(-61.38 -16.285)" fill="none" stroke="#252348" stroke-linecap="round" stroke-linejoin="round" stroke-width="0.5"/>
        <path id="Trazado_1275581" data-name="Trazado 1275581" d="M101.477,21.451s-.441-1.093-1.629-.351" transform="translate(-63.853 -13.328)" fill="none" stroke="#252348" stroke-linecap="round" stroke-linejoin="round" stroke-width="0.5"/>
        <path id="Trazado_1275582" data-name="Trazado 1275582" d="M91.7,19.351a1.484,1.484,0,0,0-2.283-.642" transform="translate(-57.182 -11.759)" fill="none" stroke="#252348" stroke-linecap="round" stroke-linejoin="round" stroke-width="0.5"/>
        <path id="Trazado_1275583" data-name="Trazado 1275583" d="M91.649,35.43a2.652,2.652,0,0,1-3.263-.953" transform="translate(-56.523 -22.048)" fill="none" stroke="#252348" stroke-linecap="round" stroke-linejoin="round" stroke-width="0.5"/>
      </g>
    </g>
    <g id="Grupo_1212006" data-name="Grupo 1212006" transform="translate(-10356.711 -4906.589)">
      <path id="Trazado_1275584" data-name="Trazado 1275584" d="M170.365,138.3l15.4,11.574-8.931,8.931L160.8,151.878Z" transform="translate(-107.595 -92.542)" fill="#db839e"/>
      <g id="Grupo_1211883" data-name="Grupo 1211883">
        <g id="Grupo_1211882" data-name="Grupo 1211882" clip-path="url(#clip-path-3)">
          <path id="Trazado_1275585" data-name="Trazado 1275585" d="M53.639,209.249S49.265,212.8,59.2,218.18s16.859,7.108,18.682,3.827l1.823-3.28-3.463-9.751L58.1,206.333Z" transform="translate(-35.25 -138.065)" fill="#252348"/>
          <path id="Trazado_1275586" data-name="Trazado 1275586" d="M24.18,208.616l-3.4,5.043a67.4,67.4,0,0,1-6.987,1.458c-4.921.851-6.986,1.215-8.445,1.58L2.3,216.2a1.878,1.878,0,0,0-1.039,3.58l3.055.441.182,9.113s2.855.972,8.688.729a47.83,47.83,0,0,0,10.51-1.64s6.2,1.58,9.721.729,6.2-3.038,5.954-7.169l2.795-6.8s-8.749-7.29-17.983-6.561" transform="translate(-0.081 -139.559)" fill="#dd90af"/>
          <path id="Trazado_1275587" data-name="Trazado 1275587" d="M4.836,243.015.8,242.72a.743.743,0,0,0-.8.719,1.457,1.457,0,0,0,1.24,1.485l3.847.576Z" transform="translate(0 -162.412)" fill="#dd90af"/>
          <path id="Trazado_1275588" data-name="Trazado 1275588" d="M5.037,250.174,1,249.879a.743.743,0,0,0-.8.719,1.457,1.457,0,0,0,1.24,1.485l3.847.576Z" transform="translate(-0.134 -167.202)" fill="#dd90af"/>
          <path id="Trazado_1275589" data-name="Trazado 1275589" d="M5.545,256.82l-4.038-.295a.743.743,0,0,0-.8.719,1.457,1.457,0,0,0,1.24,1.485L5.8,259.3Z" transform="translate(-0.474 -171.65)" fill="#dd90af"/>
          <path id="Trazado_1275590" data-name="Trazado 1275590" d="M6.519,263.726l-4.038-.295a.743.743,0,0,0-.8.719,1.457,1.457,0,0,0,1.24,1.485l3.847.576Z" transform="translate(-1.126 -176.271)" fill="#dd90af"/>
          <path id="Trazado_1275591" data-name="Trazado 1275591" d="M11.018,239.661c-.091.273-1.063,8.02.516,10.48" transform="translate(-7.119 -160.367)" fill="none" stroke="#252348" stroke-linecap="round" stroke-linejoin="round" stroke-width="0.5"/>
          <line id="Línea_3311" data-name="Línea 3311" x2="2.502" y2="0.433" transform="translate(1.032 84.876)" fill="none" stroke="#252348" stroke-linecap="round" stroke-linejoin="round" stroke-width="0.5"/>
          <line id="Línea_3312" data-name="Línea 3312" x2="2.271" y2="0.427" transform="translate(1.355 87.16)" fill="none" stroke="#252348" stroke-linecap="round" stroke-linejoin="round" stroke-width="0.5"/>
          <line id="Línea_3313" data-name="Línea 3313" x2="2.294" y2="0.428" transform="translate(1.241 82.511)" fill="none" stroke="#252348" stroke-linecap="round" stroke-linejoin="round" stroke-width="0.5"/>
          <line id="Línea_3314" data-name="Línea 3314" x2="2.538" y2="0.441" transform="translate(1.178 80.22)" fill="none" stroke="#252348" stroke-linecap="round" stroke-linejoin="round" stroke-width="0.5"/>
          <path id="Trazado_1275592" data-name="Trazado 1275592" d="M83.942,215.178s-8.749-7.29-17.983-6.561l-3.4,5.042s13.852-3.584,16.89,2.612a17.582,17.582,0,0,1,1.791,5.492Z" transform="translate(-41.859 -139.559)" fill="#cc698c"/>
          <path id="Trazado_1275593" data-name="Trazado 1275593" d="M120.647,156.593,87.98,143.638a14.437,14.437,0,0,0-16.32,4.068l-16.08,18.911s14.4-6.2,24.241,12.758l7.837-13.123,37.728,18.591,3.341-26.063Z" transform="translate(-37.19 -95.433)" fill="#272a74"/>
          <path id="Trazado_1275594" data-name="Trazado 1275594" d="M178.156,187.312a29.453,29.453,0,0,1,3.281,16.768c-.851,10.085-7.291,11.665-15.553,11.543s-46.416,0-53.585-.729-15.586-6.839-13.609-16.282c2.187-10.45,15.067-13.244,28.068-12.515s51.4,1.215,51.4,1.215" transform="translate(-65.841 -124.452)" fill="#3f4eac"/>
          <path id="Trazado_1275595" data-name="Trazado 1275595" d="M229.969,189.551c-8.962,13.356-31.521,24.638-39.27,28.231,13.864.17,31.62.147,36.948.225,8.263.121,14.7-1.458,15.553-11.543a29.45,29.45,0,0,0-3.281-16.768s-4.044-.051-9.95-.145" transform="translate(-127.604 -126.836)" fill="#3749a3"/>
          <path id="Trazado_1275596" data-name="Trazado 1275596" d="M198.05,17.6l1.914-2.461,3.736.182,5.559,1.549s-1.094-5.741-5.286-6.653a24.893,24.893,0,0,0-5.65-.82s-2.643-7.382-9.842-9.022-12.576,2.461-12.576,5.468c-2.187,3.736-3.554,10.753-.091,15.675s13.214,10.024,13.214,10.024l4.465-8.475Z" transform="translate(-116.234 0)" fill="#252348"/>
          <path id="Trazado_1275597" data-name="Trazado 1275597" d="M191,70.634,178.424,93.356l16.95,10.207L204.76,85.54Z" transform="translate(-119.391 -47.264)" fill="#eef1f7"/>
          <path id="Trazado_1275598" data-name="Trazado 1275598" d="M209,99.739l1.549,20.231,6.288,3.827L210,104.113a26.659,26.659,0,0,1-1-4.374" transform="translate(-139.848 -66.739)" fill="#e58d21"/>
          <path id="Trazado_1275599" data-name="Trazado 1275599" d="M215.6,45.157l8.9-1.883c4.605.181,7.868,1.154,14.186,3.463,3.284.8,4.176,2.788,5.288,5.98a127.861,127.861,0,0,1,4.31,15.608c2.643,12.576,6.014,23.239,5.832,26.519-4.374-1.731-35.722-3.514-35.722-3.514s-4.982-13.488-8.568-23.825c-3.245-9.356-.424-13.357,5.773-22.348" transform="translate(-139.493 -28.956)" fill="#e6a03b"/>
          <path id="Trazado_1275600" data-name="Trazado 1275600" d="M255.039,94.8c9.19.6,27.02,1.9,30.24,3.175.182-3.281-3.19-13.943-5.832-26.519a127.878,127.878,0,0,0-4.31-15.609c-1.112-3.192-2-5.176-5.288-5.98-2.155-.788-3.95-1.416-5.569-1.915-.908,8.906-3.829,33.767-9.24,46.847" transform="translate(-170.657 -32.088)" fill="#e58d21"/>
          <path id="Trazado_1275601" data-name="Trazado 1275601" d="M220.516,49.84s-1.185,6.561.365,8.384,4.83,1.732,7.291-2.734S234,43.825,234,43.825" transform="translate(-147.266 -29.325)" fill="none" stroke="#f1ce44" stroke-linecap="round" stroke-linejoin="round" stroke-width="0.5"/>
          <path id="Trazado_1275602" data-name="Trazado 1275602" d="M218.1,109.53l-7.777-21.507s-3.767-8.992.365-15.553" transform="translate(-139.681 -48.493)" fill="none" stroke="#252348" stroke-linecap="round" stroke-linejoin="round" stroke-width="0.5"/>
          <path id="Trazado_1275603" data-name="Trazado 1275603" d="M211.476,32.568l5.559,9.933,8.2-10.571L214.21,25.1Z" transform="translate(-141.507 -16.792)" fill="#dd90af"/>
          <path id="Trazado_1275604" data-name="Trazado 1275604" d="M214.21,25.095l-2.734,7.473,2.4,4.3c1.466-1.314,3.655-4.109,4.234-9.349Z" transform="translate(-141.507 -16.792)" fill="#cc698c"/>
          <path id="Trazado_1275605" data-name="Trazado 1275605" d="M231.732,43l3.1.091s-2.916,7.382-6.379,11.938c-2.653,3.49-5.013,2.825-4.466-3.008l2.066-7.533Z" transform="translate(-149.824 -28.772)" fill="#dd90af"/>
          <path id="Trazado_1275606" data-name="Trazado 1275606" d="M280.056,134.032l3.556,12.386a8.341,8.341,0,0,0,16.174-4.047l-2.233-10.435Z" transform="translate(-187.396 -88.284)" fill="#dd90af"/>
          <path id="Trazado_1275607" data-name="Trazado 1275607" d="M177.737,138.3l10.48,3.007-5.65,14.125-10.753-3.007Z" transform="translate(-114.967 -92.542)" fill="#7dbfff"/>
          <path id="Trazado_1275608" data-name="Trazado 1275608" d="M114.793,115.907s1.64-4.739,5.195-7.108l26.976,9.609.364,1.914-3.282,10.531-5.923-7.108Z" transform="translate(-76.812 -72.802)" fill="#ededed"/>
          <path id="Trazado_1275609" data-name="Trazado 1275609" d="M83.669,123l1.458-4.557a296.649,296.649,0,0,1,32.807,10.207l5.1,7.017,3.1-10.8,1.823,3.463-4.74,12.81-8.475-9.3Z" transform="translate(-55.986 -79.253)" fill="#fff"/>
          <path id="Trazado_1275610" data-name="Trazado 1275610" d="M80.088,129.457l33.172,9.3,7.564,9.751-33.445-7.746Z" transform="translate(-53.59 -86.625)" fill="#7dbfff"/>
          <path id="Trazado_1275611" data-name="Trazado 1275611" d="M140.207,106.3l-5.633,3.033a.709.709,0,0,0-.218,1.068l.019.023a3.2,3.2,0,0,0,3.964.842l2.959-1.53,6.259,2.47a7.286,7.286,0,0,0-5.676-6.158,2.478,2.478,0,0,0-1.673.251" transform="translate(-89.799 -70.928)" fill="#dd90af"/>
          <path id="Trazado_1275612" data-name="Trazado 1275612" d="M190.169,14.228a4.292,4.292,0,0,0-1.814,4.149,10.068,10.068,0,0,0,3.19,5.707c3.71,3.642,7-.058,8.207-3.282a3.993,3.993,0,0,0-.56-3.8l-2.781-3.694a2.909,2.909,0,0,0-3.976-.644Z" transform="translate(-126.005 -8.13)" fill="#dd90af"/>
          <path id="Trazado_1275613" data-name="Trazado 1275613" d="M189.166,10.178s6.744,3.281,10.024.547l.574,1.116,1.613-1.208-5.468-6.2-4.739,3.008Z" transform="translate(-126.578 -2.969)" fill="#252348"/>
          <path id="Trazado_1275614" data-name="Trazado 1275614" d="M212.451,19.479l2.412,3.1s1.562-1.281.086-3.445c-1.292-1.895-2.5.344-2.5.344" transform="translate(-142.159 -12.294)" fill="#dd90af"/>
          <path id="Trazado_1275615" data-name="Trazado 1275615" d="M217.135,22.6s.091-.866-.638-.911c0,0-1-1,0-1.276" transform="translate(-144.568 -13.658)" fill="none" stroke="#252348" stroke-linecap="round" stroke-linejoin="round" stroke-width="0.5"/>
          <path id="Trazado_1275616" data-name="Trazado 1275616" d="M194.852,40.2a.365.365,0,1,1-.365-.365.365.365,0,0,1,.365.365" transform="translate(-129.895 -26.652)" fill="#252348"/>
          <path id="Trazado_1275617" data-name="Trazado 1275617" d="M202.428,35.1a.364.364,0,1,1-.365-.365.365.365,0,0,1,.365.365" transform="translate(-134.965 -23.243)" fill="#252348"/>
          <path id="Trazado_1275618" data-name="Trazado 1275618" d="M197.7,38.178l.82,2.369.638-.866" transform="translate(-132.292 -25.547)" fill="none" stroke="#252348" stroke-linecap="round" stroke-linejoin="round" stroke-width="0.5"/>
          <path id="Trazado_1275619" data-name="Trazado 1275619" d="M191.5,36.691s-.091-.957,1.048-.866" transform="translate(-128.141 -23.968)" fill="none" stroke="#252348" stroke-linecap="round" stroke-linejoin="round" stroke-width="0.5"/>
          <path id="Trazado_1275620" data-name="Trazado 1275620" d="M197.7,31.08a1.21,1.21,0,0,1,1.412-1.321" transform="translate(-132.289 -19.907)" fill="none" stroke="#252348" stroke-linecap="round" stroke-linejoin="round" stroke-width="0.5"/>
          <path id="Trazado_1275621" data-name="Trazado 1275621" d="M202.938,43.26a2.163,2.163,0,0,0,2.005-1.914" transform="translate(-135.794 -27.666)" fill="none" stroke="#252348" stroke-linecap="round" stroke-linejoin="round" stroke-width="0.5"/>
          <path id="Trazado_1275622" data-name="Trazado 1275622" d="M280.579,132.75l16.879-3.281-1.59-6.318-17,3.159Z" transform="translate(-186.601 -82.405)" fill="#cc698c"/>
          <path id="Trazado_1275623" data-name="Trazado 1275623" d="M193.965,145.125l-33.627,7.291s-1.458-1.823-5.286-1.276c-3.541.506-5.366-.7-7.5-1.538a.66.66,0,0,0-.8.269l-.2.328a1.553,1.553,0,0,0,.495,2.12c.924.585,3.315,1.7,4.821,2.534a.242.242,0,0,1-.124.455,36.212,36.212,0,0,1-9.359-.248l-4.921-1.367a2.214,2.214,0,0,0-2.81,1.614.747.747,0,0,0,.623.846l5.65,1.731c.177.783.771,1.486,2.386,1.994-.032.577,1.05,1.192,2.71,1.828,0,0,2.834,3.888,14.771,1.282l34.639-1.427a7.742,7.742,0,0,0,7.376-9.45h0c-.915-4.615-3.193-7.9-8.843-6.984" transform="translate(-90.097 -97.007)" fill="#dd90af"/>
          <path id="Trazado_1275624" data-name="Trazado 1275624" d="M212.3,163.37s.913.556,2.553,3.837l6.592-5.863Z" transform="translate(-142.057 -107.962)" fill="#cc698c"/>
          <line id="Línea_3315" data-name="Línea 3315" x2="4.74" y2="0.738" transform="translate(50.83 60.876)" fill="none" stroke="#252348" stroke-linecap="round" stroke-linejoin="round" stroke-width="0.5"/>
          <line id="Línea_3316" data-name="Línea 3316" x2="3.645" y2="0.547" transform="translate(52.928 62.891)" fill="none" stroke="#252348" stroke-linecap="round" stroke-linejoin="round" stroke-width="0.5"/>
          <line id="Línea_3317" data-name="Línea 3317" x2="2.096" y2="0.365" transform="translate(55.57 64.531)" fill="none" stroke="#252348" stroke-linecap="round" stroke-linejoin="round" stroke-width="0.5"/>
          <path id="Trazado_1275625" data-name="Trazado 1275625" d="M271.493,53.416h0a9.758,9.758,0,0,1,12.4,7.081l5.711,21.79-20.778,2.278-4.054-20.214a9.758,9.758,0,0,1,6.72-10.935" transform="translate(-177.079 -35.445)" fill="#eef1f7"/>
          <line id="Línea_3318" data-name="Línea 3318" y1="2.369" x2="20.778" transform="translate(91.112 43.935)" fill="none" stroke="#ebb32a" stroke-linecap="round" stroke-linejoin="round" stroke-width="0.5"/>
        </g>
      </g>
    </g>
    <rect id="Rectángulo_461256" data-name="Rectángulo 461256" width="325" height="38" rx="12" transform="translate(-10593 -5234)" fill="#1e535a"/>
    <rect id="Rectángulo_461257" data-name="Rectángulo 461257" width="62" height="86" rx="12" transform="translate(-10625 -5155)" fill="#4dd0e1"/>
    <rect id="Rectángulo_461258" data-name="Rectángulo 461258" width="93" height="86" rx="12" transform="translate(-10560 -5155)" fill="#4dd0e1"/>
    <rect id="Rectángulo_461259" data-name="Rectángulo 461259" width="70" height="86" rx="12" transform="translate(-10464 -5155)" fill="#4dd0e1"/>
    <rect id="Rectángulo_461262" data-name="Rectángulo 461262" width="105" height="69" rx="12" transform="translate(-10479 -5031)" fill="#ffebbe"/>
    <rect id="Rectángulo_461263" data-name="Rectángulo 461263" width="105" height="80" rx="12" transform="translate(-10479 -4951)" fill="#ffebbe"/>
    <rect id="Rectángulo_461264" data-name="Rectángulo 461264" width="105" height="71" rx="12" transform="translate(-10479 -4863)" fill="#ffebbe"/>
    <rect id="Rectángulo_461260" data-name="Rectángulo 461260" width="73" height="86" rx="12" transform="translate(-10391 -5155)" fill="#4dd0e1"/>
    <rect id="Rectángulo_461261" data-name="Rectángulo 461261" width="75" height="86" rx="12" transform="translate(-10316 -5155)" fill="#4dd0e1"/>
    <text id="Gestionar_préstamos_de_libros" data-name="Gestionar préstamos de libros" transform="translate(-10533 -5210)" fill="#fff" font-size="16" font-family="SegoeUIBlack, Segoe UI"><tspan x="0" y="0">Gestionar préstamos de libros</tspan></text>
    <text id="Registrar_usuario" data-name="Registrar 
usuario" transform="translate(-10593 -5118)" fill="#12263f" font-size="15" font-family="SegoeUI, Segoe UI" letter-spacing="-0.025em"><tspan x="-29.543" y="0">Registrar </tspan><tspan x="-23.18" y="22">usuario</tspan></text>
    <text id="Consultar_disponibilidad_de_libros" data-name="Consultar 
disponibilidad 
de libros" transform="translate(-10513 -5129)" fill="#12263f" font-size="15" font-family="SegoeUI, Segoe UI" letter-spacing="-0.025em"><tspan x="-31.857" y="0">Consultar </tspan><tspan x="-46.217" y="22">disponibilidad </tspan><tspan x="-27.119" y="44">de libros</tspan></text>
    <text id="Registrar_préstamo" data-name="Registrar
 préstamo" transform="translate(-10430 -5118)" fill="#12263f" font-size="15" font-family="SegoeUI, Segoe UI" letter-spacing="-0.025em"><tspan x="-27.676" y="0">Registrar</tspan><tspan x="-31.887" y="22" xml:space="preserve"> préstamo</tspan></text>
    <text id="Verificar_estado_del_usuario" data-name="Verificar estado 
del usuario" transform="translate(-10426 -5001)" fill="#12263f" font-size="15" font-family="SegoeUI, Segoe UI" letter-spacing="-0.025em"><tspan x="-49.961" y="0">Verificar estado </tspan><tspan x="-34.64" y="20">del usuario</tspan></text>
    <text id="Validar_disponibilidad_del_libro" data-name="Validar 
disponibilidad 
del libro" transform="translate(-10427 -4926)" fill="#12263f" font-size="15" font-family="SegoeUI, Segoe UI" letter-spacing="-0.025em"><tspan x="-23.139" y="0">Validar </tspan><tspan x="-46.217" y="20">disponibilidad </tspan><tspan x="-25.753" y="40">del libro</tspan></text>
    <text id="Registrar_préstamo_en_el_sistema" data-name="Registrar
 préstamo
 en el sistema" transform="translate(-10427 -4843)" fill="#12263f" font-size="15" font-family="SegoeUI, Segoe UI" letter-spacing="-0.025em"><tspan x="-27.676" y="0">Registrar</tspan><tspan x="-31.887" y="20" xml:space="preserve"> préstamo</tspan><tspan x="-42.552" y="40" xml:space="preserve"> en el sistema</tspan></text>
    <text id="Registrar_devolución" data-name="Registrar 
devolución" transform="translate(-10354 -5118)" fill="#12263f" font-size="15" font-family="SegoeUI, Segoe UI" letter-spacing="-0.025em"><tspan x="-29.543" y="0">Registrar </tspan><tspan x="-34.619" y="22">devolución</tspan></text>
    <text id="Generar_historial_de_préstamos" data-name="Generar 
historial
 de 
préstamos" transform="translate(-10278 -5137)" fill="#12263f" font-size="15" font-family="SegoeUI, Segoe UI" letter-spacing="-0.025em"><tspan x="-27.007" y="0">Generar </tspan><tspan x="-24.735" y="20">historial</tspan><tspan x="-11.885" y="40" xml:space="preserve"> de </tspan><tspan x="-33.015" y="60">préstamos</tspan></text>
    <path id="Trazado_1275444" data-name="Trazado 1275444" d="M-9407.711-5299v41" transform="translate(-1022.832 103)" fill="none" stroke="#707070" stroke-width="3"/>
    <path id="Trazado_1275446" data-name="Trazado 1275446" d="M-9407.711-5299v15.333" transform="translate(-1102.113 128.666)" fill="none" stroke="#707070" stroke-width="3"/>
    <path id="Trazado_1275447" data-name="Trazado 1275447" d="M-9407.711-5299v15.333" transform="translate(-944.582 128.666)" fill="none" stroke="#707070" stroke-width="3"/>
    <path id="Trazado_1275445" data-name="Trazado 1275445" d="M-9813.712-5274v-15.333h315.063V-5274" transform="translate(-778.487 119)" fill="none" stroke="#707070" stroke-width="3"/>
    <path id="Trazado_1275448" data-name="Trazado 1275448" d="M-9431.159-5193v19.505H-9488V-4957.5h8" transform="translate(-999.499 129)" fill="none" stroke="#707070" stroke-width="3"/>
    <path id="Trazado_1275449" data-name="Trazado 1275449" d="M-9479.675-5030H-9487" transform="translate(-999.325 119)" fill="none" stroke="#707070" stroke-width="3"/>
    <path id="Trazado_1275450" data-name="Trazado 1275450" d="M-9479.675-5030H-9487" transform="translate(-999.325 39)" fill="none" stroke="#707070" stroke-width="3"/>
  </g>
</svg>
