<svg xmlns="http://www.w3.org/2000/svg" xmlns:xlink="http://www.w3.org/1999/xlink" width="128" height="128" viewBox="0 0 128 128">
  <defs>
    <clipPath id="clip-path">
      <rect id="Rectángulo_461939" data-name="Rectángulo 461939" width="57.546" height="57.588" fill="#19538d"/>
    </clipPath>
  </defs>
  <g id="Grupo_1212540" data-name="Grupo 1212540" transform="translate(-383.746 -8400)">
    <circle id="Elipse_13890" data-name="Elipse 13890" cx="64" cy="64" r="64" transform="translate(383.746 8400)" fill="#5a9ad7"/>
    <path id="Intersección_1" data-name="Intersección 1" d="M23204.689,11774.869a64,64,0,0,1,106.254-48.067l-104.787,61.753A64.213,64.213,0,0,1,23204.689,11774.869Z" transform="translate(-22820.941 -3310.872)" fill="#19538d"/>
    <circle id="Elipse_13891" data-name="Elipse 13891" cx="54" cy="54" r="54" transform="translate(393.746 8410)" fill="#fff"/>
    <g id="Grupo_1188343" data-name="Grupo 1188343" transform="translate(-0.994 -0.997)">
      <rect id="Rectángulo_459838" data-name="Rectángulo 459838" width="66" height="66" transform="translate(415.74 8434.997)" fill="#fff"/>
      <g id="Grupo_1212541" data-name="Grupo 1212541" transform="translate(419.74 8438.997)">
        <g id="Grupo_1212429" data-name="Grupo 1212429" clip-path="url(#clip-path)">
          <path id="Trazado_1277599" data-name="Trazado 1277599" d="M3.6,4.666A5.491,5.491,0,0,1,8.739,0L52.72.01C54.732-.034,57.546,2.5,57.546,4.5v6.131H50.353V52.076c0,2.063-2.508,4.85-4.544,5.265-13.346.488-26.786.077-40.166.209C3.252,57.565,0,54.6,0,52.24V45.128H3.6ZM47.246,3.44H8.256c-.234,0-1.226,1.1-1.226,1.226V45.128H41.116l.245.245v6.7a4.78,4.78,0,0,0,.584,1.051A2.846,2.846,0,0,0,46.909,51.9l0-46.589ZM54.113,7.2V4.666a3.108,3.108,0,0,0-1.023-1.1c-.969-.392-2.737.149-2.737,1.266V7.2ZM37.928,48.561H3.433v3.515a9.128,9.128,0,0,0,.728,1.234,7.672,7.672,0,0,0,1.316.809H38.582a9.01,9.01,0,0,1-.654-1.717Z" fill="#19538d"/>
          <path id="Trazado_1277600" data-name="Trazado 1277600" d="M124.809,99.042v2.289l1.314.407,1.547-1.548c.559.733,1.727,1.487,2.217,2.2.431.627-1.154,1.286-1.293,1.836-.091.358.3.815.3,1.193h2.452v3.433H128.9c0,.378-.394.835-.3,1.193.119.467,1.625,1.264,1.375,1.749A24.185,24.185,0,0,1,127.8,113.9c-.525.137-1.293-1.185-1.789-1.428-1.746.25-1.108,1.4-1.2,2.753h-3.27v-2.289l-1.2-.465-1.658,1.451-2.359-2.235c.648-1.177,1.983-1.26,1.132-2.839H115v-3.433h2.452l.306-1.192-1.375-1.429.139-.6,2.158-1.969,1.548,1.517,1.311-.414V99.042Zm.993,8.072a2.634,2.634,0,1,0-2.634,2.634,2.634,2.634,0,0,0,2.634-2.634" transform="translate(-96.2 -82.85)" fill="#19538d"/>
          <rect id="Rectángulo_461934" data-name="Rectángulo 461934" width="32.533" height="3.433" transform="translate(10.626 8.999)" fill="#19538d"/>
          <rect id="Rectángulo_461935" data-name="Rectángulo 461935" width="32.533" height="3.433" transform="translate(10.626 36.137)" fill="#19538d"/>
          <path id="Trazado_1277601" data-name="Trazado 1277601" d="M69.578,99.043v3.433H65.245L65,102.231V99.288l.245-.245Z" transform="translate(-54.374 -82.851)" fill="#19538d"/>
          <rect id="Rectángulo_461936" data-name="Rectángulo 461936" width="4.414" height="3.433" transform="translate(38.745 16.192)" fill="#19538d"/>
          <rect id="Rectángulo_461937" data-name="Rectángulo 461937" width="4.578" height="3.27" transform="translate(10.626 28.943)" fill="#19538d"/>
          <rect id="Rectángulo_461938" data-name="Rectángulo 461938" width="4.414" height="3.27" transform="translate(38.745 28.943)" fill="#19538d"/>
        </g>
      </g>
    </g>
  </g>
</svg>
