<svg xmlns="http://www.w3.org/2000/svg" xmlns:xlink="http://www.w3.org/1999/xlink" width="160" height="160" viewBox="0 0 160 160">
  <defs>
    <clipPath id="clip-path">
      <rect id="Rectángulo_461943" data-name="Rectángulo 461943" width="82" height="82" fill="#12263f"/>
    </clipPath>
  </defs>
  <g id="Grupo_1188419" data-name="Grupo 1188419" transform="translate(-186 -9253.863)">
    <g id="Grupo_1188415" data-name="Grupo 1188415" transform="translate(186 9253.862)">
      <circle id="Elipse_13890" data-name="Elipse 13890" cx="80" cy="80" r="80" transform="translate(160 160.001) rotate(180)" fill="#4dd0e1"/>
      <path id="Intersección_3" data-name="Intersección 3" d="M0,75.841,132.185,0a80.107,80.107,0,0,1-78.3,96.7A79.753,79.753,0,0,1,0,75.841Z" transform="translate(26.074 63.298)" fill="#1e535a"/>
      <ellipse id="Elipse_13891" data-name="Elipse 13891" cx="67.127" cy="67.127" rx="67.127" ry="67.127" transform="translate(147.128 147.099) rotate(180)" fill="#d5f4f8"/>
      <path id="Intersección_2" data-name="Intersección 2" d="M0,67.169A67.131,67.131,0,0,1,133.583,57.6L25.818,120.113A67.077,67.077,0,0,1,0,67.169Z" transform="translate(12.874 12.842)" fill="#fff"/>
      <g id="Grupo_1188343" data-name="Grupo 1188343" transform="translate(38.161 38.133)">
        <rect id="Rectángulo_459838" data-name="Rectángulo 459838" width="83.674" height="83.674" transform="translate(-1.161 -0.133)" fill="none"/>
        <g id="Grupo_1212513" data-name="Grupo 1212513" transform="translate(-0.161 0.867)">
          <g id="Grupo_1212435" data-name="Grupo 1212435" clip-path="url(#clip-path)">
            <path id="Trazado_1277603" data-name="Trazado 1277603" d="M82,41A41,41,0,1,1,41,0,41,41,0,0,1,82,41M50.323,19.331C48.911,13.188,43.257-1.91,36.1,8.489a32.666,32.666,0,0,0-4.422,10.841Zm-38.216,0H26.438l2.8-8.149L31.8,6.046A35.133,35.133,0,0,0,12.107,19.331m57.79,0A35.133,35.133,0,0,0,50.208,6.046l2.554,5.136,2.8,8.149Zm3.225,4.932H8.881A36.58,36.58,0,0,0,8.82,57.636l64.3.106a36.646,36.646,0,0,0,0-33.479M26.438,62.673H12.107A35.41,35.41,0,0,0,26.4,74.132a17.865,17.865,0,0,0,5.515,1.709,38.8,38.8,0,0,1-4.357-9.624c-.2-.612-.79-3.436-1.118-3.543m23.885,0H31.681c1.412,6.143,7.066,21.241,14.22,10.841a32.671,32.671,0,0,0,4.422-10.841m19.574,0H55.566a18.213,18.213,0,0,0-1.118,3.543,38.812,38.812,0,0,1-4.357,9.624c-.034.179.213.14.35.118a28.93,28.93,0,0,0,4.7-1.592A35.833,35.833,0,0,0,69.9,62.673" fill="#12263f"/>
            <path id="Trazado_1277604" data-name="Trazado 1277604" d="M213.306,124.142a7.442,7.442,0,0,1,7.438,5.017c.6,1.972.51,10.165.306,12.526-.655,7.578-11.388,9-13.938,1.8-.836-2.361-.837-12.217,0-14.577a7.435,7.435,0,0,1,6.194-4.77m.224,4.88a2.637,2.637,0,0,0-2.029,1.949,68.689,68.689,0,0,0-.019,10.245c.325,2.736,4.335,3.185,4.838-.3.239-1.658.271-9.012-.234-10.363a2.325,2.325,0,0,0-2.556-1.531" transform="translate(-158.368 -95.199)" fill="#12263f"/>
            <path id="Trazado_1277605" data-name="Trazado 1277605" d="M131.455,124.165c2.753-.219,8.422,2.517,5.532,5.544-1.908,2-3.284-.45-4.732-.664-2.94-.435-4.059,4.137-.384,4.828,2.038.384,2.7.063,4.527,1.532,6.5,5.217.451,15.579-7.524,12.184-1.814-.772-4.094-3.141-2.014-4.939,2.119-1.831,3.166.487,4.584.753,2.784.523,4.186-3.7,1.16-4.671-2.141-.689-3.192.031-5.407-1.816-4.928-4.11-2.15-12.242,4.259-12.752" transform="translate(-95.625 -95.222)" fill="#12263f"/>
            <path id="Trazado_1277606" data-name="Trazado 1277606" d="M84.574,124.127c1.582-.148,2.5,1.233,2.636,2.62.59,6.09-.452,13.144-.027,19.338-.784,3.084-4.574,2.823-4.89-.439-.59-6.089.452-13.145.027-19.338a2.619,2.619,0,0,1,2.255-2.18" transform="translate(-62.973 -95.194)" fill="#12263f"/>
          </g>
        </g>
      </g>
    </g>
  </g>
</svg>
