<svg xmlns="http://www.w3.org/2000/svg" xmlns:xlink="http://www.w3.org/1999/xlink" width="160" height="160" viewBox="0 0 160 160">
  <defs>
    <clipPath id="clip-path">
      <rect id="Rectángulo_461942" data-name="Rectángulo 461942" width="65.643" height="86.185" fill="#12263f"/>
    </clipPath>
  </defs>
  <g id="Grupo_1188418" data-name="Grupo 1188418" transform="translate(-186 -9253.863)">
    <g id="Grupo_1188415" data-name="Grupo 1188415" transform="translate(186 9253.862)">
      <circle id="Elipse_13890" data-name="Elipse 13890" cx="80" cy="80" r="80" transform="translate(160 160.001) rotate(180)" fill="#7dbfff"/>
      <path id="Intersección_3" data-name="Intersección 3" d="M0,75.841,132.185,0a80.107,80.107,0,0,1-78.3,96.7A79.753,79.753,0,0,1,0,75.841Z" transform="translate(26.074 63.298)" fill="#19538d"/>
      <ellipse id="Elipse_13891" data-name="Elipse 13891" cx="67.127" cy="67.127" rx="67.127" ry="67.127" transform="translate(147.128 147.099) rotate(180)" fill="#dfefff"/>
      <path id="Intersección_2" data-name="Intersección 2" d="M0,67.169A67.131,67.131,0,0,1,133.583,57.6L25.818,120.113A67.077,67.077,0,0,1,0,67.169Z" transform="translate(12.874 12.842)" fill="#fff"/>
      <g id="Grupo_1188343" data-name="Grupo 1188343" transform="translate(38.161 38.133)">
        <rect id="Rectángulo_459838" data-name="Rectángulo 459838" width="83.674" height="83.674" transform="translate(0 0)" fill="none"/>
        <g id="Grupo_1212512" data-name="Grupo 1212512" transform="translate(0.001 -5.134)">
          <g id="Grupo_1099618" data-name="Grupo 1099618" transform="translate(0 0.001)">
            <rect id="Rectángulo_401104" data-name="Rectángulo 401104" width="93.646" height="94.775" transform="translate(0)" fill="none"/>
          </g>
          <g id="Grupo_1212434" data-name="Grupo 1212434" transform="translate(3.143 1.295)">
            <g id="Grupo_1184509" data-name="Grupo 1184509" transform="translate(31.679 13.849)">
              <g id="Grupo_1212016" data-name="Grupo 1212016" transform="translate(0 0)">
                <g id="Grupo_1212433" data-name="Grupo 1212433" transform="translate(0 0)">
                  <rect id="Rectángulo_461539" data-name="Rectángulo 461539" width="1.886" height="5.382" transform="translate(8.05 24.576)" fill="#12263f"/>
                  <rect id="Rectángulo_461540" data-name="Rectángulo 461540" width="1.854" height="5.382" transform="translate(11.579 24.576)" fill="#12263f"/>
                  <rect id="Rectángulo_461541" data-name="Rectángulo 461541" width="1.888" height="5.38" transform="translate(17.396 24.579)" fill="#12263f"/>
                  <rect id="Rectángulo_461542" data-name="Rectángulo 461542" width="1.938" height="5.382" transform="translate(19.717 24.576)" fill="#12263f"/>
                  <rect id="Rectángulo_461543" data-name="Rectángulo 461543" width="1.919" height="5.358" transform="translate(21.998 24.601)" fill="#12263f"/>
                  <rect id="Rectángulo_461544" data-name="Rectángulo 461544" width="1.889" height="5.38" transform="translate(15.037 24.58) rotate(-0.061)" fill="#12263f"/>
                  <path id="Trazado_1276256" data-name="Trazado 1276256" d="M95.544,116.279a.658.658,0,0,0,.492-.177.639.639,0,0,0,.173-.467.609.609,0,0,0-.175-.455.8.8,0,0,0-.984,0,.6.6,0,0,0-.175.46.634.634,0,0,0,.175.467.664.664,0,0,0,.494.177" transform="translate(-83.769 -98.092)" fill="#12263f"/>
                  <path id="Trazado_1276257" data-name="Trazado 1276257" d="M94.943,130.317a.839.839,0,0,0,.574-.183.714.714,0,0,0-.006-1.014.964.964,0,0,0-1.148,0,.706.706,0,0,0,0,1.009.839.839,0,0,0,.583.19" transform="translate(-83.167 -109.966)" fill="#12263f"/>
                  <path id="Trazado_1276258" data-name="Trazado 1276258" d="M30.154,36.273H62.841V0H30.154Zm21.035-31.5h4.046v.7H52.156V7.5h2.912v.686H52.156V10.5H55.4v.7H51.189Zm-5.469,0h4.046v.7H46.687V7.5H49.6v.686H46.687V10.5h3.246v.7H45.72Zm-5.469,0H44.3v.7H41.217V7.5H44.13v.686H41.217V10.5h3.246v.7H40.25Zm-2.657,0h.967V11.2h-.967ZM55.28,31.065H36.418V23.343H55.28ZM40.336,18.124a1.019,1.019,0,0,1-.2-.627,1.18,1.18,0,0,1,.482-.989,2.523,2.523,0,0,1,2.621,0,1.177,1.177,0,0,1,.484.992,1.013,1.013,0,0,1-.206.627,1.428,1.428,0,0,1-.568.437,1.609,1.609,0,0,1,.654.469,1.083,1.083,0,0,1,.241.7,1.2,1.2,0,0,1-.514,1.022,2.789,2.789,0,0,1-2.8,0,1.2,1.2,0,0,1-.517-1.021,1.089,1.089,0,0,1,.241-.7,1.579,1.579,0,0,1,.65-.467,1.412,1.412,0,0,1-.566-.437m6,.837h-.6v-.754h.6a.934.934,0,0,0,.634-.183.62.62,0,0,0,.206-.487.553.553,0,0,0-.2-.457.877.877,0,0,0-.562-.163.923.923,0,0,0-.541.152.462.462,0,0,0-.218.4H44.532a1.069,1.069,0,0,1,.239-.682,1.565,1.565,0,0,1,.669-.472,2.555,2.555,0,0,1,.948-.17,2.366,2.366,0,0,1,1.409.368,1.185,1.185,0,0,1,.51,1.016.929.929,0,0,1-.237.614,1.523,1.523,0,0,1-.623.43,1.417,1.417,0,0,1,.714.44,1.074,1.074,0,0,1,.235.694,1.212,1.212,0,0,1-.551,1.037,2.47,2.47,0,0,1-1.457.39A2.336,2.336,0,0,1,45,20.745a1.188,1.188,0,0,1-.539-1.014h1.125a.53.53,0,0,0,.239.447,1.132,1.132,0,0,0,1.218-.008.586.586,0,0,0,.228-.482q0-.727-.934-.727m2.817.143V18.21a2.184,2.184,0,0,1,.492-1.544,2.178,2.178,0,0,1,2.835-.005,2.148,2.148,0,0,1,.5,1.5v.894A2.21,2.21,0,0,1,52.5,20.6a2.172,2.172,0,0,1-2.84.01,2.154,2.154,0,0,1-.5-1.5m9.528-4.8-25.225.008a.962.962,0,0,1-.924-.806.935.935,0,0,1,.922-.812l24.852,0a1.17,1.17,0,0,1,1.027.547c.136.267-.033,1.067-.652,1.067" transform="translate(-30.154)" fill="#12263f"/>
                  <path id="Trazado_1276259" data-name="Trazado 1276259" d="M148.228,118.444a.661.661,0,0,0,.6-.277,1.6,1.6,0,0,0,.191-.848v-1.155a1.564,1.564,0,0,0-.193-.88.683.683,0,0,0-.6-.275.673.673,0,0,0-.585.262,1.47,1.47,0,0,0-.2.82v1.182a1.639,1.639,0,0,0,.189.883.669.669,0,0,0,.6.289" transform="translate(-127.308 -98.092)" fill="#12263f"/>
                </g>
              </g>
            </g>
            <g id="Grupo_1212432" data-name="Grupo 1212432" transform="translate(10.856 2.706)">
              <g id="Grupo_1212431" data-name="Grupo 1212431" clip-path="url(#clip-path)">
                <path id="Trazado_1277602" data-name="Trazado 1277602" d="M65.644,0V86.185H8.717c-4,0-9.016-5.547-8.7-9.66L.029,9.185C-.037,5.255,4.867,0,8.717,0ZM10.064,5.142A4.827,4.827,0,0,0,6.04,7.116a14.821,14.821,0,0,0-.872,1.576v58.4c1.54-.284,2.851-1.213,4.492-1.017l.4-.33Zm50.438,0h-45.3V65.863H60.5ZM60.5,71H9.452a14.492,14.492,0,0,0-1.443.516,5.073,5.073,0,0,0-.867,8.65,11.41,11.41,0,0,0,1.82.873H60.5Z" transform="translate(0)" fill="#12263f"/>
                <rect id="Rectángulo_461940" data-name="Rectángulo 461940" width="35.502" height="3.545" transform="translate(20.102 54.904)" fill="#12263f"/>
                <rect id="Rectángulo_461941" data-name="Rectángulo 461941" width="25.219" height="3.506" transform="translate(25.244 61.037)" fill="#12263f"/>
              </g>
            </g>
          </g>
        </g>
      </g>
    </g>
  </g>
</svg>
