<svg xmlns="http://www.w3.org/2000/svg" xmlns:xlink="http://www.w3.org/1999/xlink" width="1020.332" height="518.333" viewBox="0 0 1020.332 518.333">
  <defs>
    <linearGradient id="linear-gradient" x1="0.5" x2="0.5" y2="1" gradientUnits="objectBoundingBox">
      <stop offset="0" stop-color="#fef2e2"/>
      <stop offset="1" stop-color="#ffe0d1"/>
    </linearGradient>
    <clipPath id="clip-path">
      <path id="Trazado_608976" data-name="Trazado 608976" d="M15.85,0h988.632c8.754,0,15.85,8.037,15.85,17.951V500.383c0,9.914-7.1,17.951-15.85,17.951H15.85C7.1,518.333,0,510.3,0,500.383V17.951C0,8.037,7.1,0,15.85,0Z" transform="translate(284.668 1119)" fill="url(#linear-gradient)"/>
    </clipPath>
    <clipPath id="clip-path-2">
      <rect id="Rectángulo_461343" data-name="Rectángulo 461343" width="590.154" height="317.876" fill="none"/>
    </clipPath>
    <clipPath id="clip-path-3">
      <rect id="Rectángulo_461344" data-name="Rectángulo 461344" width="298.073" height="225.487" fill="none"/>
    </clipPath>
    <clipPath id="clip-path-4">
      <rect id="Rectángulo_461345" data-name="Rectángulo 461345" width="307.727" height="242.483" fill="none"/>
    </clipPath>
  </defs>
  <g id="Grupo_1211876" data-name="Grupo 1211876" transform="translate(-289.711 -6331)">
    <g id="Enmascarar_grupo_1098656" data-name="Enmascarar grupo 1098656" transform="translate(5.043 5212)" clip-path="url(#clip-path)">
      <rect id="Rectángulo_400937" data-name="Rectángulo 400937" width="1069" height="543" transform="translate(264.668 1106)" fill="#dfefff"/>
    </g>
    <g id="Grupo_1211878" data-name="Grupo 1211878" transform="translate(13.846 7.458)">
      <g id="Grupo_1211879" data-name="Grupo 1211879" transform="translate(498 6524)">
        <path id="Trazado_1275451" data-name="Trazado 1275451" d="M0,98.418V316.506H15.161V111.543H574.992V316.506h15.162V98.418Z" transform="translate(0 -16.3)" fill="#addfeb"/>
        <g id="Grupo_1211878-2" data-name="Grupo 1211878">
          <g id="Grupo_1211877" data-name="Grupo 1211877" clip-path="url(#clip-path-2)">
            <path id="Trazado_1275452" data-name="Trazado 1275452" d="M575.22,201.864l-14.013.91-5.281-77.855a3.6,3.6,0,0,1,3.4-3.8l6.73-.437a3.624,3.624,0,0,1,3.884,3.327Z" transform="translate(-81.849 -19.986)" fill="#a5ced1"/>
            <path id="Trazado_1275513" data-name="Trazado 1275513" d="M0,0,14.043.02l.067,45.9L.067,45.9Z" transform="translate(475.053 119.328) rotate(-3.798)" fill="#c1e5eb"/>
            <path id="Trazado_1275453" data-name="Trazado 1275453" d="M591.717,201.885l-14.013.91-5.089-75.005a6.478,6.478,0,0,1,6.12-6.839l.9-.058a6.523,6.523,0,0,1,6.991,5.988Z" transform="translate(-84.305 -20.019)" fill="#8dbdbd"/>
            <path id="Trazado_1275514" data-name="Trazado 1275514" d="M0,0,14.043.02l.024,16.749L.024,16.749Z" transform="translate(491.907 160.792) rotate(-3.798)" fill="#bbe1e6"/>
            <path id="Trazado_1275454" data-name="Trazado 1275454" d="M644.819,201.363,630.862,202.9l-8.949-78a3.124,3.124,0,0,1,2.8-3.436l7.642-.839a3.161,3.161,0,0,1,3.512,2.742Z" transform="translate(-91.563 -19.974)" fill="#8dbdbd"/>
            <path id="Trazado_1275515" data-name="Trazado 1275515" d="M0,0,14.04.034l.041,16.752L.041,16.752Z" transform="matrix(0.994, -0.112, 0.112, 0.994, 536.787, 161.027)" fill="#a5ced1"/>
            <path id="Trazado_1275455" data-name="Trazado 1275455" d="M611.154,201.224,597.191,202.7l-8.638-78.359a2.8,2.8,0,0,1,2.524-3.067l8.3-.877a2.832,2.832,0,0,1,3.135,2.47Z" transform="translate(-86.652 -19.937)" fill="#c1e5eb"/>
            <path id="Trazado_1275516" data-name="Trazado 1275516" d="M0,0,14.041.032l.009,3.92L.009,3.92Z" transform="translate(502.793 112.498) rotate(-6.159)" fill="#a5ced1"/>
            <path id="Trazado_1275517" data-name="Trazado 1275517" d="M0,0,14.041.032l.009,3.92L.009,3.92Z" transform="translate(509.471 173.079) rotate(-6.16)" fill="#a5ced1"/>
            <path id="Trazado_1275456" data-name="Trazado 1275456" d="M661.844,201.9l-13.953,1.571-9.208-78.3a2.8,2.8,0,0,1,2.5-3.085l8.3-.935a2.832,2.832,0,0,1,3.151,2.448Z" transform="translate(-94.032 -20.062)" fill="#c1e5eb"/>
            <path id="Trazado_1275518" data-name="Trazado 1275518" d="M0,0,14.04.034l.01,3.921L.01,3.921Z" transform="translate(545.602 113.198) rotate(-6.564)" fill="#a5ced1"/>
            <path id="Trazado_1275519" data-name="Trazado 1275519" d="M0,0,14.04.034l.01,3.921L.01,3.921Z" transform="translate(552.721 173.73) rotate(-6.564)" fill="#a5ced1"/>
            <path id="Trazado_1275457" data-name="Trazado 1275457" d="M627.719,201.224,613.756,202.7l-8.638-78.359a2.8,2.8,0,0,1,2.524-3.067l8.3-.877a2.832,2.832,0,0,1,3.135,2.47Z" transform="translate(-89.09 -19.937)" fill="#bbe1e6"/>
            <path id="Trazado_1275520" data-name="Trazado 1275520" d="M0,0,14.041.032l.009,3.92L.009,3.92Z" transform="translate(516.919 112.498) rotate(-6.159)" fill="#ccedf5"/>
            <path id="Trazado_1275521" data-name="Trazado 1275521" d="M0,0,14.041.032l.009,3.92L.009,3.92Z" transform="translate(523.597 173.079) rotate(-6.16)" fill="#ccedf5"/>
            <path id="Trazado_1275458" data-name="Trazado 1275458" d="M439.691,201.864l-14.014.91L420.4,124.918a3.6,3.6,0,0,1,3.4-3.8l6.73-.437a3.624,3.624,0,0,1,3.883,3.327Z" transform="translate(-61.895 -19.986)" fill="#a5ced1"/>
            <path id="Trazado_1275522" data-name="Trazado 1275522" d="M0,0,14.043.02l.067,45.9L.067,45.9Z" transform="translate(359.478 119.328) rotate(-3.798)" fill="#c1e5eb"/>
            <path id="Trazado_1275459" data-name="Trazado 1275459" d="M456.141,201.832l-14.014.91-5.368-79.132a2.31,2.31,0,0,1,2.182-2.439l9.34-.607a2.325,2.325,0,0,1,2.492,2.135Z" transform="translate(-64.304 -19.967)" fill="#8dbdbd"/>
            <path id="Trazado_1275523" data-name="Trazado 1275523" d="M0,0,14.043.02l.024,16.749L.024,16.749Z" transform="translate(376.332 160.792) rotate(-3.798)" fill="#bbe1e6"/>
            <path id="Trazado_1275460" data-name="Trazado 1275460" d="M509.29,201.363,495.333,202.9l-8.949-78a3.125,3.125,0,0,1,2.8-3.436l7.642-.839a3.161,3.161,0,0,1,3.512,2.742Z" transform="translate(-71.609 -19.974)" fill="#8dbdbd"/>
            <path id="Trazado_1275524" data-name="Trazado 1275524" d="M0,0,14.04.034l.041,16.752L.041,16.752Z" transform="translate(421.212 161.027) rotate(-6.404)" fill="#a5ced1"/>
            <path id="Trazado_1275461" data-name="Trazado 1275461" d="M475.625,201.224,461.662,202.7l-8.638-78.359a2.8,2.8,0,0,1,2.524-3.067l8.3-.877a2.832,2.832,0,0,1,3.135,2.47Z" transform="translate(-66.697 -19.937)" fill="#a5ced1"/>
            <path id="Trazado_1275525" data-name="Trazado 1275525" d="M0,0,14.041.032l.009,3.92L.009,3.92Z" transform="translate(387.219 112.498) rotate(-6.16)" fill="#8dbdbd"/>
            <path id="Trazado_1275526" data-name="Trazado 1275526" d="M0,0,14.041.032l.009,3.92L.009,3.92Z" transform="translate(393.897 173.079) rotate(-6.16)" fill="#8dbdbd"/>
            <path id="Trazado_1275462" data-name="Trazado 1275462" d="M526.314,201.9l-13.952,1.571-9.208-78.3a2.8,2.8,0,0,1,2.5-3.085l8.3-.935a2.832,2.832,0,0,1,3.152,2.448Z" transform="translate(-74.078 -20.062)" fill="#c1e5eb"/>
            <path id="Trazado_1275527" data-name="Trazado 1275527" d="M0,0,14.04.034l.01,3.921L.01,3.921Z" transform="translate(430.027 113.198) rotate(-6.564)" fill="#a5ced1"/>
            <path id="Trazado_1275528" data-name="Trazado 1275528" d="M0,0,14.04.034l.01,3.921L.01,3.921Z" transform="translate(437.147 173.73) rotate(-6.564)" fill="#a5ced1"/>
            <path id="Trazado_1275463" data-name="Trazado 1275463" d="M492.19,201.224,478.226,202.7l-8.638-78.359a2.8,2.8,0,0,1,2.525-3.067l8.3-.877a2.832,2.832,0,0,1,3.135,2.47Z" transform="translate(-69.136 -19.937)" fill="#bbe1e6"/>
            <path id="Trazado_1275529" data-name="Trazado 1275529" d="M0,0,14.041.032l.009,3.92L.009,3.92Z" transform="translate(401.344 112.498) rotate(-6.16)" fill="#ccedf5"/>
            <path id="Trazado_1275530" data-name="Trazado 1275530" d="M0,0,14.041.032l.009,3.92L.009,3.92Z" transform="translate(408.022 173.079) rotate(-6.16)" fill="#ccedf5"/>
            <path id="Trazado_1275464" data-name="Trazado 1275464" d="M37.057,325.535l-14.014.91-5.281-77.855a3.6,3.6,0,0,1,3.4-3.8l6.73-.437a3.624,3.624,0,0,1,3.884,3.327Z" transform="translate(-2.614 -40.468)" fill="#a5ced1"/>
            <path id="Trazado_1275531" data-name="Trazado 1275531" d="M0,0,14.043.02l.067,45.9L.067,45.9Z" transform="translate(16.124 222.516) rotate(-3.798)" fill="#c1e5eb"/>
            <path id="Trazado_1275465" data-name="Trazado 1275465" d="M53.507,325.5l-14.014.91-5.368-79.132a2.31,2.31,0,0,1,2.182-2.439l9.34-.607a2.325,2.325,0,0,1,2.492,2.135Z" transform="translate(-5.024 -40.449)" fill="#8dbdbd"/>
            <path id="Trazado_1275532" data-name="Trazado 1275532" d="M0,0,14.043.02l.024,16.749L.024,16.749Z" transform="translate(32.978 263.98) rotate(-3.798)" fill="#bbe1e6"/>
            <path id="Trazado_1275466" data-name="Trazado 1275466" d="M106.655,325.034,92.7,326.566l-8.949-78a3.125,3.125,0,0,1,2.8-3.436l7.643-.839a3.161,3.161,0,0,1,3.511,2.742Z" transform="translate(-12.328 -40.456)" fill="#8dbdbd"/>
            <path id="Trazado_1275533" data-name="Trazado 1275533" d="M0,0,14.04.034l.041,16.752L.041,16.752Z" transform="matrix(0.994, -0.112, 0.112, 0.994, 77.859, 264.215)" fill="#a5ced1"/>
            <path id="Trazado_1275467" data-name="Trazado 1275467" d="M72.99,324.9l-13.963,1.474L50.389,248.01a2.8,2.8,0,0,1,2.524-3.067l8.3-.876a2.831,2.831,0,0,1,3.135,2.469Z" transform="translate(-7.416 -40.419)" fill="#a5ced1"/>
            <path id="Trazado_1275534" data-name="Trazado 1275534" d="M0,0,14.041.032l.009,3.921L.009,3.921Z" transform="matrix(0.994, -0.107, 0.107, 0.994, 43.865, 215.687)" fill="#8dbdbd"/>
            <path id="Trazado_1275535" data-name="Trazado 1275535" d="M0,0,14.041.032l.009,3.92L.009,3.92Z" transform="translate(50.543 276.267) rotate(-6.16)" fill="#8dbdbd"/>
            <path id="Trazado_1275468" data-name="Trazado 1275468" d="M123.68,325.567l-13.952,1.571-9.208-78.3a2.8,2.8,0,0,1,2.5-3.085l8.3-.934a2.832,2.832,0,0,1,3.152,2.448Z" transform="translate(-14.797 -40.544)" fill="#c1e5eb"/>
            <path id="Trazado_1275536" data-name="Trazado 1275536" d="M0,0,14.04.034l.01,3.921L.01,3.921Z" transform="translate(86.674 216.387) rotate(-6.564)" fill="#a5ced1"/>
            <path id="Trazado_1275537" data-name="Trazado 1275537" d="M0,0,14.04.034l.01,3.921L.01,3.921Z" transform="translate(93.793 276.918) rotate(-6.564)" fill="#a5ced1"/>
            <path id="Trazado_1275469" data-name="Trazado 1275469" d="M89.555,324.9l-13.963,1.474L66.954,248.01a2.8,2.8,0,0,1,2.524-3.067l8.3-.876a2.831,2.831,0,0,1,3.135,2.469Z" transform="translate(-9.855 -40.419)" fill="#bbe1e6"/>
            <path id="Trazado_1275538" data-name="Trazado 1275538" d="M0,0,14.041.032l.009,3.921L.009,3.921Z" transform="matrix(0.994, -0.107, 0.107, 0.994, 57.991, 215.687)" fill="#ccedf5"/>
            <path id="Trazado_1275539" data-name="Trazado 1275539" d="M0,0,14.041.032l.009,3.92L.009,3.92Z" transform="translate(64.669 276.267) rotate(-6.16)" fill="#ccedf5"/>
            <path id="Trazado_1275470" data-name="Trazado 1275470" d="M294.71,162.286l0-9.207a2.293,2.293,0,0,1,2.318-2.268l77.9-.011a3.143,3.143,0,0,1,3.177,3.108v7.524a3.143,3.143,0,0,1-3.177,3.109l-77.9.011a2.293,2.293,0,0,1-2.318-2.267" transform="translate(-43.391 -24.975)" fill="#8dbdbd"/>
            <rect id="Rectángulo_461292" data-name="Rectángulo 461292" width="17.116" height="13.741" transform="translate(256.72 125.835)" fill="#a5ced1"/>
            <path id="Trazado_1275471" data-name="Trazado 1275471" d="M373.141,203.19l.046,8.905a2.445,2.445,0,0,1-2.459,2.431l-77.746.382a3.145,3.145,0,0,1-3.194-3.093l-.038-7.524a3.142,3.142,0,0,1,3.161-3.124l77.747-.382a2.446,2.446,0,0,1,2.483,2.406" transform="translate(-42.661 -33.253)" fill="#8dbdbd"/>
            <rect id="Rectángulo_461293" data-name="Rectángulo 461293" width="17.118" height="13.743" transform="translate(307.95 167.629) rotate(-0.289)" fill="#a5ced1"/>
            <path id="Trazado_1275472" data-name="Trazado 1275472" d="M378.063,184.49l-.014,13.741-80.55-.078a2.816,2.816,0,0,1-2.843-2.788l.008-8.173a2.817,2.817,0,0,1,2.85-2.782Z" transform="translate(-43.383 -30.542)" fill="#a5ced1"/>
            <rect id="Rectángulo_461294" data-name="Rectángulo 461294" width="13.742" height="4.006" transform="translate(262.438 167.62) rotate(-89.939)" fill="#8dbdbd"/>
            <rect id="Rectángulo_461295" data-name="Rectángulo 461295" width="13.742" height="4.007" transform="translate(324.711 167.68) rotate(-89.939)" fill="#8dbdbd"/>
            <path id="Trazado_1275473" data-name="Trazado 1275473" d="M380.887,134.8l-.014,13.741-80.551-.078a2.815,2.815,0,0,1-2.842-2.788l.008-8.173a2.816,2.816,0,0,1,2.849-2.781Z" transform="translate(-43.799 -22.312)" fill="#a5ced1"/>
            <rect id="Rectángulo_461296" data-name="Rectángulo 461296" width="13.742" height="4.007" transform="translate(264.846 126.156) rotate(-89.939)" fill="#8dbdbd"/>
            <rect id="Rectángulo_461297" data-name="Rectángulo 461297" width="13.742" height="4.007" transform="translate(327.119 126.217) rotate(-89.939)" fill="#8dbdbd"/>
            <path id="Trazado_1275474" data-name="Trazado 1275474" d="M381.055,169.1l.025,10.343a1.717,1.717,0,0,1-1.733,1.7l-78.813.18a2.817,2.817,0,0,1-2.853-2.779l-.02-8.173a2.815,2.815,0,0,1,2.839-2.79l78.814-.18a1.719,1.719,0,0,1,1.741,1.7" transform="translate(-43.825 -27.725)" fill="#bbe1e6"/>
            <rect id="Rectángulo_461298" data-name="Rectángulo 461298" width="4.007" height="13.742" transform="matrix(1, -0.002, 0.002, 1, 264.998, 139.843)" fill="#ccedf5"/>
            <rect id="Rectángulo_461299" data-name="Rectángulo 461299" width="4.007" height="13.742" transform="translate(327.271 139.7) rotate(-0.134)" fill="#ccedf5"/>
            <path id="Trazado_1275475" data-name="Trazado 1275475" d="M112.658,189.924l0,9.207a2.293,2.293,0,0,1-2.317,2.268l-77.9.011a3.143,3.143,0,0,1-3.177-3.108v-7.524a3.143,3.143,0,0,1,3.177-3.109l77.9-.011a2.293,2.293,0,0,1,2.318,2.267" transform="translate(-4.308 -31.079)" fill="#8dbdbd"/>
            <rect id="Rectángulo_461300" data-name="Rectángulo 461300" width="17.116" height="13.741" transform="translate(85.832 156.579)" fill="#a5ced1"/>
            <path id="Trazado_1275476" data-name="Trazado 1275476" d="M34.219,148.947l-.046-8.905a2.445,2.445,0,0,1,2.459-2.431l77.746-.382a3.145,3.145,0,0,1,3.194,3.093l.038,7.524a3.143,3.143,0,0,1-3.161,3.124l-77.747.382a2.446,2.446,0,0,1-2.483-2.406" transform="translate(-5.031 -22.727)" fill="#8dbdbd"/>
            <rect id="Rectángulo_461301" data-name="Rectángulo 461301" width="17.118" height="13.743" transform="translate(34.532 114.87) rotate(-0.289)" fill="#a5ced1"/>
            <path id="Trazado_1275477" data-name="Trazado 1275477" d="M29.3,167.706l.014-13.741,80.551.078a2.816,2.816,0,0,1,2.842,2.788L112.7,165a2.817,2.817,0,0,1-2.849,2.782Z" transform="translate(-4.314 -25.499)" fill="#a5ced1"/>
            <rect id="Rectángulo_461302" data-name="Rectángulo 461302" width="13.742" height="4.007" transform="matrix(0.001, -1, 1, 0.001, 93.209, 142.273)" fill="#8dbdbd"/>
            <rect id="Rectángulo_461303" data-name="Rectángulo 461303" width="13.742" height="4.007" transform="translate(30.936 142.213) rotate(-89.939)" fill="#8dbdbd"/>
            <path id="Trazado_1275478" data-name="Trazado 1275478" d="M26.479,217.4l.014-13.741,80.551.078a2.815,2.815,0,0,1,2.842,2.788l-.008,8.173a2.817,2.817,0,0,1-2.849,2.782Z" transform="translate(-3.899 -33.729)" fill="#a5ced1"/>
            <rect id="Rectángulo_461304" data-name="Rectángulo 461304" width="13.742" height="4.007" transform="matrix(0.001, -1, 1, 0.001, 90.802, 183.737)" fill="#8dbdbd"/>
            <rect id="Rectángulo_461305" data-name="Rectángulo 461305" width="13.742" height="4.006" transform="translate(28.528 183.677) rotate(-89.939)" fill="#8dbdbd"/>
            <path id="Trazado_1275479" data-name="Trazado 1275479" d="M26.309,183.074l-.025-10.343a1.717,1.717,0,0,1,1.733-1.7l78.813-.18a2.816,2.816,0,0,1,2.853,2.778l.02,8.174a2.814,2.814,0,0,1-2.839,2.79l-78.814.18a1.719,1.719,0,0,1-1.74-1.7" transform="translate(-3.87 -28.295)" fill="#bbe1e6"/>
            <rect id="Rectángulo_461306" data-name="Rectángulo 461306" width="4.007" height="13.742" transform="translate(90.632 142.581) rotate(-0.134)" fill="#ccedf5"/>
            <rect id="Rectángulo_461307" data-name="Rectángulo 461307" width="4.007" height="13.742" transform="matrix(1, -0.002, 0.002, 1, 28.359, 142.723)" fill="#ccedf5"/>
            <path id="Trazado_1275480" data-name="Trazado 1275480" d="M232.376,310.206l0,9.207a2.293,2.293,0,0,1-2.318,2.268l-77.9.011a3.143,3.143,0,0,1-3.177-3.108v-7.524a3.143,3.143,0,0,1,3.177-3.109l77.9-.011a2.293,2.293,0,0,1,2.318,2.267" transform="translate(-21.935 -51)" fill="#8dbdbd"/>
            <rect id="Rectángulo_461308" data-name="Rectángulo 461308" width="17.116" height="13.741" transform="translate(187.923 256.941)" fill="#a5ced1"/>
            <path id="Trazado_1275481" data-name="Trazado 1275481" d="M153.937,269.229l-.046-8.906a2.445,2.445,0,0,1,2.459-2.43l77.746-.382a3.145,3.145,0,0,1,3.194,3.093l.038,7.524a3.143,3.143,0,0,1-3.161,3.124l-77.747.382a2.446,2.446,0,0,1-2.483-2.406" transform="translate(-22.658 -42.648)" fill="#8dbdbd"/>
            <rect id="Rectángulo_461309" data-name="Rectángulo 461309" width="17.118" height="13.743" transform="matrix(1, -0.005, 0.005, 1, 136.623, 215.231)" fill="#a5ced1"/>
            <path id="Trazado_1275482" data-name="Trazado 1275482" d="M149.02,287.988l.014-13.741,80.551.078a2.816,2.816,0,0,1,2.842,2.788l-.008,8.173a2.817,2.817,0,0,1-2.849,2.782Z" transform="translate(-21.941 -45.42)" fill="#a5ced1"/>
            <rect id="Rectángulo_461310" data-name="Rectángulo 461310" width="13.742" height="4.006" transform="translate(195.301 242.634) rotate(-89.939)" fill="#8dbdbd"/>
            <rect id="Rectángulo_461311" data-name="Rectángulo 461311" width="13.742" height="4.006" transform="translate(133.027 242.574) rotate(-89.939)" fill="#8dbdbd"/>
            <path id="Trazado_1275483" data-name="Trazado 1275483" d="M146.2,337.682l.014-13.741,80.551.078a2.815,2.815,0,0,1,2.842,2.788l-.008,8.173a2.817,2.817,0,0,1-2.849,2.782Z" transform="translate(-21.525 -53.65)" fill="#a5ced1"/>
            <rect id="Rectángulo_461312" data-name="Rectángulo 461312" width="13.742" height="4.007" transform="translate(192.893 284.098) rotate(-89.939)" fill="#8dbdbd"/>
            <rect id="Rectángulo_461313" data-name="Rectángulo 461313" width="13.742" height="4.006" transform="matrix(0.001, -1, 1, 0.001, 130.619, 284.038)" fill="#8dbdbd"/>
            <path id="Trazado_1275484" data-name="Trazado 1275484" d="M146.027,303.356,146,293.013a1.717,1.717,0,0,1,1.733-1.7l78.813-.18a2.817,2.817,0,0,1,2.852,2.779l.02,8.173a2.816,2.816,0,0,1-2.839,2.791l-78.814.179a1.719,1.719,0,0,1-1.741-1.7" transform="translate(-21.496 -48.216)" fill="#bbe1e6"/>
            <rect id="Rectángulo_461314" data-name="Rectángulo 461314" width="4.007" height="13.742" transform="translate(192.723 242.942) rotate(-0.134)" fill="#ccedf5"/>
            <rect id="Rectángulo_461315" data-name="Rectángulo 461315" width="4.006" height="13.742" transform="matrix(1, -0.002, 0.002, 1, 130.45, 243.084)" fill="#ccedf5"/>
            <rect id="Rectángulo_461316" data-name="Rectángulo 461316" width="13.002" height="212.031" transform="translate(113.046 88.175)" fill="#addfeb"/>
            <rect id="Rectángulo_461317" data-name="Rectángulo 461317" width="13.002" height="212.031" transform="translate(230.789 88.175)" fill="#addfeb"/>
            <rect id="Rectángulo_461318" data-name="Rectángulo 461318" width="13.002" height="212.031" transform="translate(345.641 88.175)" fill="#addfeb"/>
            <rect id="Rectángulo_461319" data-name="Rectángulo 461319" width="13.002" height="212.031" transform="translate(461.216 88.175)" fill="#addfeb"/>
            <rect id="Rectángulo_461320" data-name="Rectángulo 461320" width="582.208" height="16.151" transform="translate(3.973 284.056)" fill="#addfeb"/>
            <rect id="Rectángulo_461321" data-name="Rectángulo 461321" width="582.208" height="16.15" transform="translate(3.973 181.81)" fill="#addfeb"/>
            <path id="Trazado_1275485" data-name="Trazado 1275485" d="M30.124,375.079H8.454L20.733,345.4H42.4Z" transform="translate(-1.245 -57.203)" fill="#addfeb"/>
            <path id="Trazado_1275486" data-name="Trazado 1275486" d="M652.638,375.079h21.671L662.029,345.4H640.358Z" transform="translate(-94.282 -57.203)" fill="#addfeb"/>
            <path id="Trazado_1275487" data-name="Trazado 1275487" d="M586.041,324.217H572v-75.17a6.5,6.5,0,0,1,6.571-6.428h.9a6.5,6.5,0,0,1,6.57,6.428Z" transform="translate(-84.216 -40.182)" fill="#a5ced1"/>
            <rect id="Rectángulo_461322" data-name="Rectángulo 461322" width="14.044" height="45.9" transform="translate(487.78 220.434)" fill="#ccedf5"/>
            <path id="Trazado_1275488" data-name="Trazado 1275488" d="M618.781,324.217H604.737v-75.17a6.5,6.5,0,0,1,6.57-6.428h.9a6.5,6.5,0,0,1,6.57,6.428Z" transform="translate(-89.037 -40.182)" fill="#a5ced1"/>
            <rect id="Rectángulo_461323" data-name="Rectángulo 461323" width="14.044" height="16.747" transform="translate(515.7 262.002)" fill="#8dbdbd"/>
            <path id="Trazado_1275489" data-name="Trazado 1275489" d="M646.692,324.708,632.4,324.8l-11.311-75.935a4.879,4.879,0,0,1,4.2-5.511l4.065-.58a4.952,4.952,0,0,1,5.633,4.109Z" transform="translate(-91.437 -40.199)" fill="#a5ced1"/>
            <path id="Trazado_1275540" data-name="Trazado 1275540" d="M0,0,14.038.043,14.091,16.8.053,16.755Z" transform="translate(537.719 262.796) rotate(-8.291)" fill="#8dbdbd"/>
            <path id="Trazado_1275490" data-name="Trazado 1275490" d="M569.791,324.217H555.747v-75.17a6.5,6.5,0,0,1,6.57-6.428h.9a6.5,6.5,0,0,1,6.57,6.428Z" transform="translate(-81.824 -40.182)" fill="#c1e5eb"/>
            <rect id="Rectángulo_461325" data-name="Rectángulo 461325" width="14.044" height="3.92" transform="translate(473.923 213.363)" fill="#a5ced1"/>
            <rect id="Rectángulo_461326" data-name="Rectángulo 461326" width="14.044" height="3.92" transform="translate(473.923 274.295)" fill="#a5ced1"/>
            <path id="Trazado_1275491" data-name="Trazado 1275491" d="M665.864,322.414l-13.817,2.467-13.794-73.948a6.44,6.44,0,0,1,5.283-7.478l.89-.159a6.56,6.56,0,0,1,7.643,5.17Z" transform="translate(-93.956 -40.277)" fill="#c1e5eb"/>
            <path id="Trazado_1275541" data-name="Trazado 1275541" d="M0,0,14.035.054l.015,3.922L.015,3.922Z" transform="translate(545.123 215.084) rotate(-10.351)" fill="#a5ced1"/>
            <path id="Trazado_1275542" data-name="Trazado 1275542" d="M0,0,14.035.054l.015,3.922L.015,3.922Z" transform="translate(556.305 275.025) rotate(-10.351)" fill="#a5ced1"/>
            <path id="Trazado_1275492" data-name="Trazado 1275492" d="M602.531,324.217H588.487v-75.17a6.5,6.5,0,0,1,6.57-6.428h.9a6.5,6.5,0,0,1,6.57,6.428Z" transform="translate(-86.644 -40.182)" fill="#bbe1e6"/>
            <rect id="Rectángulo_461329" data-name="Rectángulo 461329" width="14.044" height="3.92" transform="translate(501.843 213.363)" fill="#ccedf5"/>
            <path id="Trazado_1275493" data-name="Trazado 1275493" d="M178.324,201.676H164.28v-75.17a6.5,6.5,0,0,1,6.57-6.428h.9a6.5,6.5,0,0,1,6.57,6.428Z" transform="translate(-24.187 -19.887)" fill="#a5ced1"/>
            <rect id="Rectángulo_461330" data-name="Rectángulo 461330" width="14.044" height="45.9" transform="translate(140.092 118.188)" fill="#ccedf5"/>
            <path id="Trazado_1275494" data-name="Trazado 1275494" d="M211.064,201.676H197.02v-75.17a6.5,6.5,0,0,1,6.57-6.428h.9a6.5,6.5,0,0,1,6.57,6.428Z" transform="translate(-29.008 -19.887)" fill="#a5ced1"/>
            <rect id="Rectángulo_461331" data-name="Rectángulo 461331" width="14.044" height="16.747" transform="translate(168.012 159.756)" fill="#8dbdbd"/>
            <path id="Trazado_1275495" data-name="Trazado 1275495" d="M238.975,202.167l-14.288.089-11.311-75.935a4.879,4.879,0,0,1,4.2-5.511l4.065-.58a4.952,4.952,0,0,1,5.633,4.109Z" transform="translate(-31.408 -19.904)" fill="#a5ced1"/>
            <path id="Trazado_1275543" data-name="Trazado 1275543" d="M0,0,14.038.043,14.091,16.8.053,16.755Z" transform="translate(190.032 160.55) rotate(-8.291)" fill="#8dbdbd"/>
            <path id="Trazado_1275496" data-name="Trazado 1275496" d="M162.074,201.676H148.03v-75.17a6.5,6.5,0,0,1,6.57-6.428h.9a6.5,6.5,0,0,1,6.57,6.428Z" transform="translate(-21.795 -19.887)" fill="#c1e5eb"/>
            <rect id="Rectángulo_461333" data-name="Rectángulo 461333" width="14.044" height="3.919" transform="translate(126.235 111.118)" fill="#a5ced1"/>
            <rect id="Rectángulo_461334" data-name="Rectángulo 461334" width="14.044" height="3.92" transform="translate(126.235 172.049)" fill="#a5ced1"/>
            <path id="Trazado_1275497" data-name="Trazado 1275497" d="M258.147,199.873l-13.816,2.467-13.8-73.948a6.44,6.44,0,0,1,5.283-7.478l.89-.159a6.56,6.56,0,0,1,7.643,5.169Z" transform="translate(-33.927 -19.982)" fill="#c1e5eb"/>
            <path id="Trazado_1275544" data-name="Trazado 1275544" d="M0,0,14.035.054l.015,3.922L.015,3.922Z" transform="translate(197.436 112.838) rotate(-10.351)" fill="#a5ced1"/>
            <path id="Trazado_1275545" data-name="Trazado 1275545" d="M0,0,14.035.054l.015,3.922L.015,3.922Z" transform="translate(208.617 172.779) rotate(-10.351)" fill="#a5ced1"/>
            <path id="Trazado_1275498" data-name="Trazado 1275498" d="M194.815,201.676H180.771v-75.17a6.5,6.5,0,0,1,6.57-6.428h.9a6.5,6.5,0,0,1,6.57,6.428Z" transform="translate(-26.615 -19.887)" fill="#bbe1e6"/>
            <rect id="Rectángulo_461337" data-name="Rectángulo 461337" width="14.044" height="3.919" transform="translate(154.155 111.118)" fill="#ccedf5"/>
            <path id="Trazado_1275499" data-name="Trazado 1275499" d="M121.277,77.834H23.312V60.67h97.965a8.584,8.584,0,1,1,0,17.164" transform="translate(-3.432 -10.048)" fill="#a5ced1"/>
            <path id="Trazado_1275500" data-name="Trazado 1275500" d="M69.894,76.886H23.313v-14.8H69.894a7.4,7.4,0,1,1,0,14.8" transform="translate(-3.432 -10.283)" fill="#f6fdff"/>
            <path id="Trazado_1275501" data-name="Trazado 1275501" d="M25.769,97.355H80.21a3.5,3.5,0,0,1-3.538-3.462V84.93a3.5,3.5,0,0,1,3.538-3.462H25.769a3.5,3.5,0,0,0-3.538,3.462v8.963a3.5,3.5,0,0,0,3.538,3.462" transform="translate(-3.273 -13.493)" fill="#8dbdbd"/>
            <path id="Trazado_1275502" data-name="Trazado 1275502" d="M85.927,84.929v8.963a3.5,3.5,0,0,0,3.538,3.462h47.773V81.467H89.465a3.5,3.5,0,0,0-3.538,3.462" transform="translate(-12.651 -13.492)" fill="#c1e5eb"/>
            <path id="Trazado_1275503" data-name="Trazado 1275503" d="M91.205,83.067h46.373V96.284H91.205a2.933,2.933,0,0,1-2.965-2.9V85.968a2.934,2.934,0,0,1,2.965-2.9" transform="translate(-12.992 -13.757)" fill="#e0f4fb"/>
            <path id="Trazado_1275504" data-name="Trazado 1275504" d="M113.037,56.689H31.281a7.642,7.642,0,0,1-7.724-7.558V44.27a7.642,7.642,0,0,1,7.724-7.558h81.757Z" transform="translate(-3.468 -6.08)" fill="#8dbdbd"/>
            <path id="Trazado_1275505" data-name="Trazado 1275505" d="M32.158,38.813a6.1,6.1,0,0,0-6.182,6.021v4.7a6.1,6.1,0,0,0,6.182,6.021H64.42V38.813Z" transform="translate(-3.825 -6.428)" fill="#f6fdff"/>
            <rect id="Rectángulo_461338" data-name="Rectángulo 461338" width="49.063" height="16.742" transform="translate(60.595 32.384)" fill="#e0f4fb"/>
            <path id="Trazado_1275506" data-name="Trazado 1275506" d="M536.3,95.824l-.029-12.166a1.717,1.717,0,0,1,1.733-1.7l89.877-.205a2.816,2.816,0,0,1,2.853,2.778l.024,10a2.816,2.816,0,0,1-2.84,2.791l-89.877.205a1.719,1.719,0,0,1-1.74-1.7" transform="translate(-78.957 -13.539)" fill="#a5ced1"/>
            <rect id="Rectángulo_461339" data-name="Rectángulo 461339" width="4.538" height="15.565" transform="translate(534.583 68.243) rotate(-0.129)" fill="#ccedf5"/>
            <rect id="Rectángulo_461340" data-name="Rectángulo 461340" width="4.538" height="15.565" transform="matrix(1, -0.002, 0.002, 1, 464.049, 68.404)" fill="#ccedf5"/>
            <path id="Trazado_1275507" data-name="Trazado 1275507" d="M530.371,77.189l-.029-12.166a1.717,1.717,0,0,1,1.733-1.7l89.876-.205a2.816,2.816,0,0,1,2.852,2.778l.024,10a2.816,2.816,0,0,1-2.84,2.791l-89.876.205a1.719,1.719,0,0,1-1.741-1.7" transform="translate(-78.084 -10.453)" fill="#bbe1e6"/>
            <rect id="Rectángulo_461341" data-name="Rectángulo 461341" width="4.538" height="15.565" transform="translate(529.527 52.694) rotate(-0.129)" fill="#ccedf5"/>
            <rect id="Rectángulo_461342" data-name="Rectángulo 461342" width="4.538" height="15.565" transform="matrix(1, -0.002, 0.002, 1, 458.992, 52.855)" fill="#ccedf5"/>
            <path id="Trazado_1275508" data-name="Trazado 1275508" d="M531.527,45.953a27.878,27.878,0,0,1-20.985-3.813C499.749,35.393,499.45,4.3,499.45,4.3a48.691,48.691,0,0,1,32.077,16.133c9.893,11.146,0,25.519,0,25.519" transform="translate(-73.535 -0.712)" fill="#addfeb"/>
            <path id="Trazado_1275509" data-name="Trazado 1275509" d="M540.166,63.777S526.676,27.7,508.239,11.859" transform="translate(-74.829 -1.964)" fill="none" stroke="#8dbdbd" stroke-linecap="round" stroke-miterlimit="10" stroke-width="0.5"/>
            <path id="Trazado_1275510" data-name="Trazado 1275510" d="M545.323,41.1s-8.875-11.574-.3-27.288C553.784-2.224,580.011.119,580.011.119s-.259,18.741-9.589,29.39-20.176,12.351-25.1,11.59" transform="translate(-79.695 0)" fill="#addfeb"/>
            <path id="Trazado_1275511" data-name="Trazado 1275511" d="M538.412,57.866s12.127-35.321,31.305-51.6" transform="translate(-79.272 -1.037)" fill="none" stroke="#8dbdbd" stroke-linecap="round" stroke-miterlimit="10" stroke-width="0.5"/>
            <path id="Trazado_1275512" data-name="Trazado 1275512" d="M558.668,60.274H514.249L516.5,94.422h39.924Z" transform="translate(-75.714 -9.982)" fill="#a2d7e0"/>
          </g>
        </g>
      </g>
    </g>
    <g id="Grupo_1211877-2" data-name="Grupo 1211877">
      <rect id="Rectángulo_461256" data-name="Rectángulo 461256" width="510" height="54" rx="12" transform="translate(544.711 6347)" fill="#1e535a"/>
      <rect id="Rectángulo_461257" data-name="Rectángulo 461257" width="162" height="90" rx="12" transform="translate(315.711 6426)" fill="#4dd0e1"/>
      <rect id="Rectángulo_461258" data-name="Rectángulo 461258" width="162" height="90" rx="12" transform="translate(520.711 6426)" fill="#4dd0e1"/>
      <rect id="Rectángulo_461259" data-name="Rectángulo 461259" width="162" height="90" rx="12" transform="translate(718.711 6426)" fill="#4dd0e1"/>
      <rect id="Rectángulo_461262" data-name="Rectángulo 461262" width="129" height="69" rx="12" transform="translate(751.711 6550)" fill="#ffebbe"/>
      <rect id="Rectángulo_461263" data-name="Rectángulo 461263" width="129" height="80" rx="12" transform="translate(751.711 6630)" fill="#ffebbe"/>
      <rect id="Rectángulo_461264" data-name="Rectángulo 461264" width="129" height="90" rx="12" transform="translate(751.711 6723)" fill="#ffebbe"/>
      <rect id="Rectángulo_461260" data-name="Rectángulo 461260" width="162" height="90" rx="12" transform="translate(913.711 6426)" fill="#4dd0e1"/>
      <rect id="Rectángulo_461261" data-name="Rectángulo 461261" width="162" height="90" rx="12" transform="translate(1101.711 6426)" fill="#4dd0e1"/>
      <text id="Gestionar_préstamos_de_libros" data-name="Gestionar préstamos de libros" transform="translate(677.711 6379)" fill="#fff" font-size="18" font-family="SegoeUIBlack, Segoe UI"><tspan x="0" y="0">Gestionar préstamos de libros</tspan></text>
      <text id="Registrar_usuario" data-name="Registrar 
usuario" transform="translate(396.711 6466)" fill="#12263f" font-size="16" font-family="SegoeUI, Segoe UI"><tspan x="-33.313" y="0">Registrar </tspan><tspan x="-25.926" y="22">usuario</tspan></text>
      <text id="Consultar_disponibilidad_de_libros" data-name="Consultar 
disponibilidad 
de libros" transform="translate(601.711 6455)" fill="#12263f" font-size="16" font-family="SegoeUI, Segoe UI"><tspan x="-35.781" y="0">Consultar </tspan><tspan x="-52.098" y="22">disponibilidad </tspan><tspan x="-30.527" y="44">de libros</tspan></text>
      <text id="Registrar_préstamo" data-name="Registrar
 préstamo" transform="translate(799.711 6466)" fill="#12263f" font-size="16" font-family="SegoeUI, Segoe UI"><tspan x="-31.121" y="0">Registrar</tspan><tspan x="-35.613" y="22" xml:space="preserve"> préstamo</tspan></text>
      <text id="Verificar_estado_del_usuario" data-name="Verificar estado 
del usuario" transform="translate(816.711 6579)" fill="#12263f" font-size="16" font-family="SegoeUI, Segoe UI"><tspan x="-56.492" y="0">Verificar estado </tspan><tspan x="-38.949" y="22">del usuario</tspan></text>
      <text id="Validar_disponibilidad_del_libro" data-name="Validar 
disponibilidad 
del libro" transform="translate(816.711 6654)" fill="#12263f" font-size="16" font-family="SegoeUI, Segoe UI"><tspan x="-26.082" y="0">Validar </tspan><tspan x="-52.098" y="22">disponibilidad </tspan><tspan x="-29.07" y="44">del libro</tspan></text>
      <text id="Registrar_préstamo_en_el_sistema" data-name="Registrar
 préstamo
 en el sistema" transform="translate(816.711 6752)" fill="#12263f" font-size="16" font-family="SegoeUI, Segoe UI"><tspan x="-31.121" y="0">Registrar</tspan><tspan x="-35.613" y="22" xml:space="preserve"> préstamo</tspan><tspan x="-47.988" y="44" xml:space="preserve"> en el sistema</tspan></text>
      <text id="Registrar_devolución" data-name="Registrar 
devolución" transform="translate(994.711 6466)" fill="#12263f" font-size="16" font-family="SegoeUI, Segoe UI"><tspan x="-33.313" y="0">Registrar </tspan><tspan x="-38.727" y="22">devolución</tspan></text>
      <text id="Generar_historial_de_préstamos" data-name="Generar historial
 de préstamos" transform="translate(1182.711 6466)" fill="#12263f" font-size="16" font-family="SegoeUI, Segoe UI"><tspan x="-58.191" y="0">Generar historial</tspan><tspan x="-50.094" y="22" xml:space="preserve"> de préstamos</tspan></text>
      <path id="Trazado_1275444" data-name="Trazado 1275444" d="M-9407.711-5299v25" transform="translate(10207.711 11700)" fill="none" stroke="#707070" stroke-width="3"/>
      <path id="Trazado_1275446" data-name="Trazado 1275446" d="M-9407.711-5299v15.333" transform="translate(10009.922 11709.666)" fill="none" stroke="#707070" stroke-width="3"/>
      <path id="Trazado_1275447" data-name="Trazado 1275447" d="M-9407.711-5299v15.333" transform="translate(10402.922 11709.666)" fill="none" stroke="#707070" stroke-width="3"/>
      <path id="Trazado_1275445" data-name="Trazado 1275445" d="M-9813.711-5274v-15.333h786V-5274" transform="translate(10210.422 11700)" fill="none" stroke="#707070" stroke-width="3"/>
      <path id="Trazado_1275448" data-name="Trazado 1275448" d="M-9408-5193v19.505h-80V-4941.5h30" transform="translate(10207.711 11710)" fill="none" stroke="#707070" stroke-width="3"/>
      <path id="Trazado_1275449" data-name="Trazado 1275449" d="M-9456-5030h-31" transform="translate(10207.711 11700)" fill="none" stroke="#707070" stroke-width="3"/>
      <path id="Trazado_1275450" data-name="Trazado 1275450" d="M-9456-5030h-31" transform="translate(10207.711 11620)" fill="none" stroke="#707070" stroke-width="3"/>
    </g>
    <g id="Grupo_1211881" data-name="Grupo 1211881" transform="translate(315.222 6619)">
      <g id="Grupo_1211880" data-name="Grupo 1211880" clip-path="url(#clip-path-3)">
        <path id="Trazado_1275546" data-name="Trazado 1275546" d="M135.042,114.123l28.7,48.637a14.549,14.549,0,0,1-.923,16.167l-4.37,5.783a12.58,12.58,0,0,1-20.054.025L106.06,142.17Z" transform="translate(-20.797 -22.378)" fill="#df9a7d"/>
        <path id="Trazado_1275547" data-name="Trazado 1275547" d="M141.275,125.508l-19.19,35.723-8.562-23.619Z" transform="translate(-22.26 -24.611)" fill="#d97f76"/>
        <path id="Trazado_1275548" data-name="Trazado 1275548" d="M80.47,59.036h6.791l9.53,2.171A32.272,32.272,0,0,1,117.62,76.623L137.155,110.7l-32.181,27.457Z" transform="translate(-15.779 -11.576)" fill="#4dd0e1"/>
        <path id="Trazado_1275549" data-name="Trazado 1275549" d="M108.932,88.783l25.243,34.985-18.6,15.943Z" transform="translate(-21.36 -17.409)" fill="#3c6ae5"/>
        <path id="Trazado_1275550" data-name="Trazado 1275550" d="M137.554,84.1l-6.882-6.711,51.706-58.785,8.305,5.745Z" transform="translate(-25.623 -3.648)" fill="#fff"/>
        <path id="Trazado_1275551" data-name="Trazado 1275551" d="M153.872,101.433l44.046-47.711L191.269,19.5,133.588,82.462Z" transform="translate(-26.195 -3.823)" fill="#19538d"/>
        <path id="Trazado_1275552" data-name="Trazado 1275552" d="M197.918,62.07,133.588,90.81l20.284,18.971Z" transform="translate(-26.195 -12.171)" fill="#42747b"/>
        <path id="Trazado_1275553" data-name="Trazado 1275553" d="M152.976,105.35s-.756-8.237,11.088-12.745l1.927-2.474-4.34-4.819-3.721-1.6a3.961,3.961,0,0,1,.094-5.4,1.605,1.605,0,0,1,2.209-.1l3.8,1.072a5.3,5.3,0,0,1,2.359,1.4l4.331,4.449-3.665-7.483-3.885-2.539a2.757,2.757,0,0,1,0-4.25,2.888,2.888,0,0,1,3.442-.174l4.345,2.9,6.379,8.513-1.656-8.482-3.54-3.331a3.254,3.254,0,0,1,.158-4.878,2.086,2.086,0,0,1,2.72.055l6.43,5.761,1.851,6.7,1.058-7.452-2.732-3.793A3.826,3.826,0,0,1,182.7,61.2a2.4,2.4,0,0,1,3.423.97l3.813,7.693,1,17.9a30.045,30.045,0,0,1-7.968,22.118l-5.787,6.238-.853,39.958a18.547,18.547,0,0,1-21.218,17.98l-.55-.08a19.186,19.186,0,0,1-15.558-24.81c6.07-19.037,13.97-43.815,13.97-43.815" transform="translate(-27.078 -11.929)" fill="#df9a7d"/>
        <line id="Línea_3305" data-name="Línea 3305" x2="4.54" y2="4.766" transform="translate(141.678 71.046)" fill="none" stroke="#252348" stroke-linecap="round" stroke-linejoin="round" stroke-width="0.5"/>
        <line id="Línea_3306" data-name="Línea 3306" x2="4.766" y2="6.81" transform="translate(147.126 66.053)" fill="none" stroke="#252348" stroke-linecap="round" stroke-linejoin="round" stroke-width="0.5"/>
        <line id="Línea_3307" data-name="Línea 3307" x2="1.338" y2="5.732" transform="translate(156.229 65.996)" fill="none" stroke="#252348" stroke-linecap="round" stroke-linejoin="round" stroke-width="0.5"/>
        <line id="Línea_3308" data-name="Línea 3308" x1="9.743" y2="32.771" transform="translate(114.069 99.126)" fill="none" stroke="#252348" stroke-linecap="round" stroke-linejoin="round" stroke-width="0.5"/>
        <path id="Trazado_1275554" data-name="Trazado 1275554" d="M273.74,202.263l13.285,24.8,40.3,22.143a18.994,18.994,0,0,0,5.2,1.978c6.344,1.391,10.657.75,10.657,1.845,0,0,.082,7.249-2.575,8.577s-12.4,0-12.4,0-24.8,4.429-41.186-2.214c-20.814,6.2-30.114,3.986-35.871.443s-4.429-19.929-4.429-19.929l-15.5-23.914Z" transform="translate(-45.341 -39.661)" fill="#e4b482"/>
        <path id="Trazado_1275555" data-name="Trazado 1275555" d="M352.424,262.87l14.3,1.362s1.589,6.81-3.178,9.534" transform="translate(-69.106 -51.546)" fill="none" stroke="#252348" stroke-linecap="round" stroke-linejoin="round" stroke-width="0.5"/>
        <path id="Trazado_1275556" data-name="Trazado 1275556" d="M273.74,202.263l-42.514,13.728,15.5,23.914s-1.329,16.386,4.428,19.929q.711.438,1.5.842l34.37-33.614Z" transform="translate(-45.341 -39.661)" fill="#dd8a76"/>
        <path id="Trazado_1275557" data-name="Trazado 1275557" d="M69.82,199.857l67.454-77.645a48.09,48.09,0,0,1,73.384,7.806l47.375,70.725-46.056,27.014-36.757-49.6-50.486,62Z" transform="translate(-13.691 -21.313)" fill="#7b5809"/>
        <path id="Trazado_1275558" data-name="Trazado 1275558" d="M203.342,198.964,265.99,229l-27.831,16.456Z" transform="translate(-39.873 -39.014)" fill="#4e390a"/>
        <line id="Línea_3309" data-name="Línea 3309" x1="20.371" y1="26.572" transform="translate(148.243 140.016)" fill="none" stroke="#252348" stroke-linecap="round" stroke-linejoin="round" stroke-width="0.5"/>
        <line id="Línea_3310" data-name="Línea 3310" x2="17.714" y2="11.071" transform="translate(143.814 145.773)" fill="none" stroke="#252348" stroke-linecap="round" stroke-linejoin="round" stroke-width="0.5"/>
        <path id="Trazado_1275559" data-name="Trazado 1275559" d="M27.926,194.551s-5.757,12.843-4.429,41.185,14.171,27.015,25.243,27.9L164.4,262.21a32.669,32.669,0,0,0-.565-65.326Z" transform="translate(-4.569 -38.149)" fill="#7a4f1e"/>
        <path id="Trazado_1275560" data-name="Trazado 1275560" d="M57.155,196.868l-29.4-1.79c-.945,2.41-5.446,15.354-4.255,40.761,1.329,28.343,14.171,27.014,25.243,27.9L108.857,263c-42.75-18.32-51.7-66.13-51.7-66.13" transform="translate(-4.569 -38.253)" fill="#4e390a"/>
        <path id="Trazado_1275561" data-name="Trazado 1275561" d="M47.139,52.058s-17.714,3.248-29.524,6.791c-2.9.869-5.153,3.054-4.679,6.041L18.8,172.81l89.161-13.285s-17.229-74.236-19-81.322c-.985-3.938-3.01-11.078-5.315-15.352a10.4,10.4,0,0,0-6.094-4.592Z" transform="translate(-2.524 -10.208)" fill="#4dd0e1"/>
        <path id="Trazado_1275562" data-name="Trazado 1275562" d="M119.315,136.471,105.438,76.833s-2.572-9.12-4.533-11.351" transform="translate(-19.786 -12.84)" fill="none" stroke="#252348" stroke-linecap="round" stroke-linejoin="round" stroke-width="0.5"/>
        <path id="Trazado_1275563" data-name="Trazado 1275563" d="M75.606,129.072c-8.562-12.99-28.934-53.143-28.934-53.143l-30.156,7.1,2.995,94.466,62.921-9.376c11.334-2.781,19.448-4.8,19.448-4.8s-17.714-21.257-26.275-34.247" transform="translate(-3.239 -14.889)" fill="#3c6ae5"/>
        <path id="Trazado_1275564" data-name="Trazado 1275564" d="M115.242,159.541c-3.1-.111-8.467-1.026-11.578-1.337l-42.306-4.231L53.977,130.65,19.139,150.726c.169.506,3.433,13.1,6.194,23.784A19.862,19.862,0,0,0,44.567,189.4l66.135-1.487,8.4-.681Z" transform="translate(-3.753 -25.619)" fill="#e4b482"/>
        <path id="Trazado_1275565" data-name="Trazado 1275565" d="M129.083,165.741l14.981,1.589c8.172,1.135,14.073,1.589,19.975,4.994l10.669,5.221,17.7,8.4s.681,4.313-2.724,5.675c0,0-2.27,1.816-7.491,2.043a6.249,6.249,0,0,1-4.312.908,131.8,131.8,0,0,1-15.435-.908,53.646,53.646,0,0,1-24.061.908l-8.852.227Z" transform="translate(-25.312 -32.5)" fill="#e4b482"/>
        <path id="Trazado_1275566" data-name="Trazado 1275566" d="M182.165,183.811l17.7,7.491s2.27,3.4-1.815,4.993" transform="translate(-35.72 -36.043)" fill="none" stroke="#252348" stroke-linecap="round" stroke-linejoin="round" stroke-width="0.5"/>
        <path id="Trazado_1275567" data-name="Trazado 1275567" d="M176.236,186.634l19.067,6.81s1.815,4.086-3.859,4.541" transform="translate(-34.558 -36.597)" fill="none" stroke="#252348" stroke-linecap="round" stroke-linejoin="round" stroke-width="0.5"/>
        <path id="Trazado_1275568" data-name="Trazado 1275568" d="M167.544,191.152l20.429,4.54s1.362,4.085-4.994,3.859-15.435-1.135-15.435-1.135-8.172,2.5-12.484,1.816" transform="translate(-30.405 -37.483)" fill="none" stroke="#252348" stroke-linecap="round" stroke-linejoin="round" stroke-width="0.5"/>
        <path id="Trazado_1275569" data-name="Trazado 1275569" d="M23.568,168.756l37.2-16.164-4.65-15.057-36.978,14.54Z" transform="translate(-3.753 -26.969)" fill="#dd8a76"/>
        <path id="Trazado_1275570" data-name="Trazado 1275570" d="M14.382,143.417l44.125-9.5L45.944,74.5C43.724,65.362,33.6,59.154,24.2,58.856l-4.753.277C8.762,59.608-2.471,71.038.478,84.363Z" transform="translate(0 -11.541)" fill="#4dd0e1"/>
        <path id="Trazado_1275571" data-name="Trazado 1275571" d="M133.628,199.44s-5.9-4.085-7.944-8.853l-20.883,9.76Z" transform="translate(-20.55 -37.372)" fill="#dd8a76"/>
        <path id="Trazado_1275572" data-name="Trazado 1275572" d="M84.078,56.436,85.9,35.646,67.871,20.5,55.3,45.413l.584.269-5.384.859C51.381,51.265,56.454,59.9,70.459,62.7c11.809,2.362,16.6.56,14.762-4.133a8.965,8.965,0,0,0-1.142-2.129" transform="translate(-9.901 -4.019)" fill="#e4b482"/>
        <path id="Trazado_1275573" data-name="Trazado 1275573" d="M70.676,20.5,88.71,35.646,86.938,49.6C81.749,50.778,66.314,46.541,64.8,32.921Z" transform="translate(-12.706 -4.019)" fill="#dd8a76"/>
        <path id="Trazado_1275574" data-name="Trazado 1275574" d="M87.062,3.529a11.739,11.739,0,0,1,9.625,7.792c1.413,4.085,1.873,9.943-.568,17.872-3.782,12.28-18.053,10-23.489,2.315-2.532-3.581-4.609-6.217-3.987-9.893L70.749,9.148a7.955,7.955,0,0,1,8.844-6.566Z" transform="translate(-13.438 -0.494)" fill="#e4b482"/>
        <path id="Trazado_1275575" data-name="Trazado 1275575" d="M96.834,11.821,81.216,9.993s-7.809,11.962-13.79,12.294c0,0-2.739-8.1.8-15.777,4.654-10.083,28.638-8.562,28.6,5.31" transform="translate(-13.023 0)" fill="#252348"/>
        <path id="Trazado_1275576" data-name="Trazado 1275576" d="M73.163,16.349,71.208,26.911s-5.4-1.146-4.543-8.257c.753-6.226,6.5-2.306,6.5-2.306" transform="translate(-13.054 -2.967)" fill="#e4b482"/>
        <path id="Trazado_1275577" data-name="Trazado 1275577" d="M70.355,24s-1.31-1.987.4-3.015c0,0,1.173-3.695-1.6-3.1" transform="translate(-13.56 -3.495)" fill="none" stroke="#252348" stroke-linecap="round" stroke-linejoin="round" stroke-width="0.5"/>
        <path id="Trazado_1275578" data-name="Trazado 1275578" d="M100.807,27.149a1,1,0,1,0,.427-1.343,1,1,0,0,0-.427,1.343" transform="translate(-19.745 -5.038)" fill="#252348"/>
        <path id="Trazado_1275579" data-name="Trazado 1275579" d="M90.6,25.978a1,1,0,1,0,.427-1.343,1,1,0,0,0-.427,1.343" transform="translate(-17.743 -4.809)" fill="#252348"/>
        <path id="Trazado_1275580" data-name="Trazado 1275580" d="M97.629,25.465l.989,6.785-2.638-1.3" transform="translate(-18.821 -4.993)" fill="none" stroke="#252348" stroke-linecap="round" stroke-linejoin="round" stroke-width="0.5"/>
        <path id="Trazado_1275581" data-name="Trazado 1275581" d="M103.482,22.2s-.982-2.438-3.634-.784" transform="translate(-19.579 -4.087)" fill="none" stroke="#252348" stroke-linecap="round" stroke-linejoin="round" stroke-width="0.5"/>
        <path id="Trazado_1275582" data-name="Trazado 1275582" d="M94.508,20.536S92.9,16.88,89.416,19.1" transform="translate(-17.533 -3.605)" fill="none" stroke="#252348" stroke-linecap="round" stroke-linejoin="round" stroke-width="0.5"/>
        <path id="Trazado_1275583" data-name="Trazado 1275583" d="M95.661,36.6a5.915,5.915,0,0,1-7.275-2.125" transform="translate(-17.331 -6.761)" fill="none" stroke="#252348" stroke-linecap="round" stroke-linejoin="round" stroke-width="0.5"/>
      </g>
    </g>
    <g id="Grupo_1211884" data-name="Grupo 1211884" transform="translate(978.711 6606.851)">
      <path id="Trazado_1275584" data-name="Trazado 1275584" d="M186.243,138.3,227.2,169.079,203.451,192.83,160.8,174.411Z" transform="translate(-19.311 -16.609)" fill="#db839e"/>
      <g id="Grupo_1211883" data-name="Grupo 1211883">
        <g id="Grupo_1211882" data-name="Grupo 1211882" clip-path="url(#clip-path-4)">
          <path id="Trazado_1275585" data-name="Trazado 1275585" d="M55.231,214.088S43.6,223.54,70.015,237.84s44.837,18.9,49.683,10.179l4.847-8.724-9.21-25.933-48.229-7.029Z" transform="translate(-6.327 -24.779)" fill="#252348"/>
          <path id="Trazado_1275586" data-name="Trazado 1275586" d="M64.107,208.7l-9.049,13.411s-5.071,1.542-18.581,3.878c-13.086,2.262-18.58,3.231-22.458,4.2l-8.108-1.323a4.994,4.994,0,0,0-2.762,9.521l8.124,1.173.485,24.236s7.594,2.585,23.1,1.939a127.2,127.2,0,0,0,27.951-4.363s16.481,4.2,25.852,1.938,16.481-8.078,15.834-19.065l7.433-18.1S88.665,206.762,64.107,208.7" transform="translate(-0.014 -25.047)" fill="#dd90af"/>
          <path id="Trazado_1275587" data-name="Trazado 1275587" d="M12.861,243.507l-10.739-.784A1.977,1.977,0,0,0,0,244.634a3.874,3.874,0,0,0,3.3,3.949l10.232,1.532Z" transform="translate(0 -29.149)" fill="#dd90af"/>
          <path id="Trazado_1275588" data-name="Trazado 1275588" d="M13.062,250.666l-10.739-.784A1.977,1.977,0,0,0,.2,251.793a3.874,3.874,0,0,0,3.3,3.949l10.232,1.532Z" transform="translate(-0.024 -30.009)" fill="#dd90af"/>
          <path id="Trazado_1275589" data-name="Trazado 1275589" d="M13.57,257.312,2.83,256.528a1.977,1.977,0,0,0-2.12,1.911,3.874,3.874,0,0,0,3.3,3.949L14.24,263.92Z" transform="translate(-0.085 -30.807)" fill="#dd90af"/>
          <path id="Trazado_1275590" data-name="Trazado 1275590" d="M14.544,264.218,3.8,263.434a1.977,1.977,0,0,0-2.12,1.911,3.874,3.874,0,0,0,3.3,3.949l10.232,1.532Z" transform="translate(-0.202 -31.636)" fill="#dd90af"/>
          <path id="Trazado_1275591" data-name="Trazado 1275591" d="M11.646,239.661c-.242.727-2.827,21.328,1.374,27.871" transform="translate(-1.278 -28.782)" fill="none" stroke="#252348" stroke-linecap="round" stroke-linejoin="round" stroke-width="0.5"/>
          <line id="Línea_3311" data-name="Línea 3311" x2="6.654" y2="1.153" transform="translate(2.745 225.722)" fill="none" stroke="#252348" stroke-linecap="round" stroke-linejoin="round" stroke-width="0.5"/>
          <line id="Línea_3312" data-name="Línea 3312" x2="6.039" y2="1.136" transform="translate(3.603 231.798)" fill="none" stroke="#252348" stroke-linecap="round" stroke-linejoin="round" stroke-width="0.5"/>
          <line id="Línea_3313" data-name="Línea 3313" x2="6.1" y2="1.139" transform="translate(3.299 219.435)" fill="none" stroke="#252348" stroke-linecap="round" stroke-linejoin="round" stroke-width="0.5"/>
          <line id="Línea_3314" data-name="Línea 3314" x2="6.751" y2="1.174" transform="translate(3.134 213.341)" fill="none" stroke="#252348" stroke-linecap="round" stroke-linejoin="round" stroke-width="0.5"/>
          <path id="Trazado_1275592" data-name="Trazado 1275592" d="M119.43,226.151S96.163,206.762,71.6,208.7l-9.048,13.41s36.838-9.532,44.917,6.948a46.759,46.759,0,0,1,4.763,14.606Z" transform="translate(-7.513 -25.047)" fill="#cc698c"/>
          <path id="Trazado_1275593" data-name="Trazado 1275593" d="M228.623,179.778l-86.877-34.451a38.394,38.394,0,0,0-43.4,10.818L55.579,206.437s38.293-16.481,64.467,33.93l20.843-34.9,100.337,49.441,8.886-69.314Z" transform="translate(-6.675 -17.128)" fill="#272a74"/>
          <path id="Trazado_1275594" data-name="Trazado 1275594" d="M310.513,189.509s10.987,17.773,8.725,44.594-19.389,31.022-41.363,30.7-123.442,0-142.507-1.938-41.449-18.187-36.192-43.3c5.816-27.79,40.07-35.223,74.646-33.284s136.691,3.232,136.691,3.232" transform="translate(-11.817 -22.336)" fill="#3f4eac"/>
          <path id="Trazado_1275595" data-name="Trazado 1275595" d="M295.135,189.551c-23.835,35.519-83.83,65.524-104.436,75.08,36.87.451,84.091.391,98.26.6,21.974.323,39.1-3.878,41.363-30.7s-8.725-44.595-8.725-44.595-10.756-.136-26.461-.386" transform="translate(-22.902 -22.764)" fill="#3749a3"/>
          <path id="Trazado_1275596" data-name="Trazado 1275596" d="M238.447,46.8l5.089-6.544,9.937.485,14.784,4.121S265.349,29.595,254.2,27.172s-15.026-2.181-15.026-2.181S232.146,5.359,213,1,179.554,7.54,179.554,15.538c-5.817,9.937-9.452,28.6-.243,41.686s35.143,26.659,35.143,26.659l11.875-22.54Z" transform="translate(-20.861 0)" fill="#252348"/>
          <path id="Trazado_1275597" data-name="Trazado 1275597" d="M211.869,70.634l-33.445,60.428L223.5,158.207l24.959-47.932Z" transform="translate(-21.428 -8.483)" fill="#eef1f7"/>
          <path id="Trazado_1275598" data-name="Trazado 1275598" d="M209,99.739l4.12,53.8,16.723,10.179-18.176-52.349S209,102.647,209,99.739" transform="translate(-25.099 -11.978)" fill="#e58d21"/>
          <path id="Trazado_1275599" data-name="Trazado 1275599" d="M227.433,48.282l23.67-5.008c12.247.482,20.923,3.069,37.727,9.209,8.733,2.138,11.105,7.414,14.063,15.9a340.035,340.035,0,0,1,11.463,41.51c7.028,33.445,15.995,61.8,15.511,70.526-11.633-4.6-95-9.345-95-9.345s-13.25-35.869-22.786-63.362c-8.631-24.882-1.127-35.521,15.353-59.433" transform="translate(-25.035 -5.197)" fill="#e6a03b"/>
          <path id="Trazado_1275600" data-name="Trazado 1275600" d="M255.039,172.542c24.441,1.593,71.858,5.055,80.421,8.444.485-8.725-8.482-37.081-15.511-70.526a340.081,340.081,0,0,0-11.462-41.51c-2.957-8.489-5.33-13.766-14.063-15.9-5.732-2.1-10.506-3.767-14.811-5.092-2.415,23.685-10.183,89.8-24.574,124.588" transform="translate(-30.629 -5.759)" fill="#e58d21"/>
          <path id="Trazado_1275601" data-name="Trazado 1275601" d="M221.235,59.821s-3.151,17.449.97,22.3,12.845,4.605,19.389-7.271S257.1,43.825,257.1,43.825" transform="translate(-26.431 -5.263)" fill="none" stroke="#f1ce44" stroke-linecap="round" stroke-linejoin="round" stroke-width="0.5"/>
          <path id="Trazado_1275602" data-name="Trazado 1275602" d="M233.607,171.029l-20.681-57.2s-10.018-23.913.97-41.363" transform="translate(-25.069 -8.703)" fill="none" stroke="#252348" stroke-linecap="round" stroke-linejoin="round" stroke-width="0.5"/>
          <path id="Trazado_1275603" data-name="Trazado 1275603" d="M211.476,44.969,226.26,71.386l21.812-28.114L218.747,25.1Z" transform="translate(-25.397 -3.014)" fill="#dd90af"/>
          <path id="Trazado_1275604" data-name="Trazado 1275604" d="M218.747,25.095l-7.271,19.874,6.393,11.424c3.9-3.494,9.721-10.928,11.259-24.863Z" transform="translate(-25.397 -3.014)" fill="#cc698c"/>
          <path id="Trazado_1275605" data-name="Trazado 1275605" d="M244.718,43l8.239.242s-7.755,19.632-16.965,31.75c-7.055,9.282-13.331,7.513-11.876-8l5.493-20.035Z" transform="translate(-26.89 -5.164)" fill="#dd90af"/>
          <path id="Trazado_1275606" data-name="Trazado 1275606" d="M280.056,137.51l9.456,32.939a22.183,22.183,0,0,0,43.014-10.762l-5.938-27.751Z" transform="translate(-33.633 -15.845)" fill="#dd90af"/>
          <path id="Trazado_1275607" data-name="Trazado 1275607" d="M187.567,138.3l27.871,8-15.026,37.566-28.6-8Z" transform="translate(-20.634 -16.609)" fill="#7dbfff"/>
          <path id="Trazado_1275608" data-name="Trazado 1275608" d="M114.793,127.7s4.363-12.6,13.815-18.9l71.742,25.553.969,5.09L192.59,167.45l-15.753-18.9Z" transform="translate(-13.786 -13.066)" fill="#ededed"/>
          <path id="Trazado_1275609" data-name="Trazado 1275609" d="M83.669,130.558l3.878-12.118c27.047,6.456,56.366,15.8,87.249,27.144l13.573,18.662,8.244-28.735,4.847,9.21-12.606,34.066-22.54-24.721Z" transform="translate(-10.048 -14.224)" fill="#fff"/>
          <path id="Trazado_1275610" data-name="Trazado 1275610" d="M80.088,129.457l88.219,24.721,20.116,25.932-88.945-20.6Z" transform="translate(-9.618 -15.547)" fill="#7dbfff"/>
          <path id="Trazado_1275611" data-name="Trazado 1275611" d="M150.175,106.8l-14.981,8.067a1.887,1.887,0,0,0-.579,2.84l.049.062a8.5,8.5,0,0,0,10.542,2.239l7.868-4.069,16.645,6.569s-1.437-13.55-15.094-16.377a6.589,6.589,0,0,0-4.451.668" transform="translate(-16.117 -12.73)" fill="#dd90af"/>
          <path id="Trazado_1275612" data-name="Trazado 1275612" d="M193.254,17.677a11.414,11.414,0,0,0-4.825,11.034c.607,4.16,2.729,9.526,8.485,15.178,9.866,9.687,18.609-.155,21.826-8.729a10.618,10.618,0,0,0-1.491-10.1l-7.4-9.823a7.736,7.736,0,0,0-10.574-1.713Z" transform="translate(-22.615 -1.459)" fill="#dd90af"/>
          <path id="Trazado_1275613" data-name="Trazado 1275613" d="M189.166,19.706s17.934,8.725,26.659,1.454l1.527,2.969,4.29-3.212L207.1,4.437l-12.6,8Z" transform="translate(-22.718 -0.533)" fill="#252348"/>
          <path id="Trazado_1275614" data-name="Trazado 1275614" d="M212.451,21.314l6.414,8.246s4.153-3.406.229-9.162c-3.436-5.039-6.642.916-6.642.916" transform="translate(-25.514 -2.206)" fill="#dd90af"/>
          <path id="Trazado_1275615" data-name="Trazado 1275615" d="M218.933,26.229s.242-2.3-1.7-2.423c0,0-2.666-2.666,0-3.394" transform="translate(-25.946 -2.451)" fill="none" stroke="#252348" stroke-linecap="round" stroke-linejoin="round" stroke-width="0.5"/>
          <path id="Trazado_1275616" data-name="Trazado 1275616" d="M196.062,40.8a.97.97,0,1,1-.97-.97.97.97,0,0,1,.97.97" transform="translate(-23.313 -4.783)" fill="#252348"/>
          <path id="Trazado_1275617" data-name="Trazado 1275617" d="M203.637,35.7a.969.969,0,1,1-.97-.97.97.97,0,0,1,.97.97" transform="translate(-24.223 -4.171)" fill="#252348"/>
          <path id="Trazado_1275618" data-name="Trazado 1275618" d="M197.7,38.178l2.181,6.3,1.7-2.3" transform="translate(-23.743 -4.585)" fill="none" stroke="#252348" stroke-linecap="round" stroke-linejoin="round" stroke-width="0.5"/>
          <path id="Trazado_1275619" data-name="Trazado 1275619" d="M191.506,38.137s-.242-2.545,2.788-2.3" transform="translate(-22.998 -4.302)" fill="none" stroke="#252348" stroke-linecap="round" stroke-linejoin="round" stroke-width="0.5"/>
          <path id="Trazado_1275620" data-name="Trazado 1275620" d="M197.7,33.288s-.242-3.878,3.756-3.514" transform="translate(-23.743 -3.573)" fill="none" stroke="#252348" stroke-linecap="round" stroke-linejoin="round" stroke-width="0.5"/>
          <path id="Trazado_1275621" data-name="Trazado 1275621" d="M202.938,46.435a5.752,5.752,0,0,0,5.332-5.089" transform="translate(-24.372 -4.965)" fill="none" stroke="#252348" stroke-linecap="round" stroke-linejoin="round" stroke-width="0.5"/>
          <path id="Trazado_1275622" data-name="Trazado 1275622" d="M283.42,148.679l44.888-8.725-4.229-16.8-45.212,8.4Z" transform="translate(-33.49 -14.79)" fill="#cc698c"/>
          <path id="Trazado_1275623" data-name="Trazado 1275623" d="M292.4,145.378l-89.43,19.389s-3.878-4.847-14.057-3.393c-9.418,1.345-14.271-1.873-19.935-4.09a1.755,1.755,0,0,0-2.141.714l-.53.871a4.13,4.13,0,0,0,1.316,5.639c2.457,1.555,8.815,4.532,12.822,6.738a.645.645,0,0,1-.329,1.209c-8.151,1.1-16.5.4-24.891-.661l-13.088-3.636c-3.393-.678-6.969.87-7.473,4.293a1.986,1.986,0,0,0,1.656,2.251l15.027,4.6c.472,2.081,2.049,3.951,6.345,5.3-.085,1.534,2.793,3.17,7.207,4.861,0,0,7.536,10.341,39.282,3.409l92.12-3.8a20.589,20.589,0,0,0,19.617-25.133h0c-2.433-12.273-8.492-21-23.518-18.574" transform="translate(-16.17 -17.41)" fill="#dd90af"/>
          <path id="Trazado_1275624" data-name="Trazado 1275624" d="M212.3,166.732s2.428,1.479,6.79,10.2l17.53-15.592Z" transform="translate(-25.496 -19.376)" fill="#cc698c"/>
          <line id="Línea_3315" data-name="Línea 3315" x2="12.606" y2="1.964" transform="translate(135.18 161.897)" fill="none" stroke="#252348" stroke-linecap="round" stroke-linejoin="round" stroke-width="0.5"/>
          <line id="Línea_3316" data-name="Línea 3316" x2="9.694" y2="1.454" transform="translate(140.758 167.254)" fill="none" stroke="#252348" stroke-linecap="round" stroke-linejoin="round" stroke-width="0.5"/>
          <line id="Línea_3317" data-name="Línea 3317" x2="5.574" y2="0.97" transform="translate(147.787 171.617)" fill="none" stroke="#252348" stroke-linecap="round" stroke-linejoin="round" stroke-width="0.5"/>
          <path id="Trazado_1275625" data-name="Trazado 1275625" d="M282.87,54.154h0a25.95,25.95,0,0,1,32.979,18.832l15.189,57.95-55.258,6.059L265,83.236A25.95,25.95,0,0,1,282.87,54.154" transform="translate(-31.781 -6.361)" fill="#eef1f7"/>
          <line id="Línea_3318" data-name="Línea 3318" y1="6.301" x2="55.258" transform="translate(242.306 116.844)" fill="none" stroke="#ebb32a" stroke-linecap="round" stroke-linejoin="round" stroke-width="0.5"/>
        </g>
      </g>
    </g>
  </g>
</svg>
