<svg id="Grupo_1212527" data-name="Grupo 1212527" xmlns="http://www.w3.org/2000/svg" xmlns:xlink="http://www.w3.org/1999/xlink" width="96" height="96" viewBox="0 0 96 96">
  <defs>
    <clipPath id="clip-path">
      <rect id="Rectángulo_461956" data-name="Rectángulo 461956" width="49.226" height="49.121" fill="#19538d"/>
    </clipPath>
  </defs>
  <circle id="Elipse_13890" data-name="Elipse 13890" cx="48" cy="48" r="48" fill="#5a9ad7"/>
  <path id="Intersección_1" data-name="Intersección 1" d="M0,47.89A47.893,47.893,0,0,1,79.511,11.92L1.1,58.131A48,48,0,0,1,0,47.89Z" transform="translate(0.109 0.107)" fill="#19538d"/>
  <path id="Trazado_1032916" data-name="Trazado 1032916" d="M40,0A40,40,0,1,1,0,40,40,40,0,0,1,40,0Z" transform="translate(7.711 8.063)" fill="#e6f3ff"/>
  <g id="Grupo_1188343" data-name="Grupo 1188343" transform="translate(23.001 22)">
    <rect id="Rectángulo_459838" data-name="Rectángulo 459838" width="52" height="52" transform="translate(-1.29 0.063)" fill="none"/>
    <g id="Grupo_1212528" data-name="Grupo 1212528" transform="translate(-0.29 1.063)">
      <g id="Grupo_1212450" data-name="Grupo 1212450" clip-path="url(#clip-path)">
        <path id="Trazado_1277630" data-name="Trazado 1277630" d="M39.724,6.292c2.879.262,6.918-.956,8.85,1.822a4.007,4.007,0,0,1-2.78,6.13c-1.9.206-4.136-.154-6.07,0,.2,1.856-.764,3.375-1.265,5.072a2.888,2.888,0,0,1,1.266,1.7V49.121H25.494V20.731c0-.388.949-1.2,1.114-1.531a10.47,10.47,0,0,1-1.175-4.826l-3.148-.131V17.1c0,.669-1.083,1.724-1.776,1.851-1.855.338-4.427-.2-6.363.055-.909,1.14-1.076,3.2-2.952,3.2-1.808,0-2.106-1.932-2.858-3.152-.566-.345-5.342.156-6.568-.128A2.4,2.4,0,0,1,.1,16.552C-.214,12.414.342,7.89.1,3.711A2.547,2.547,0,0,1,2.68,1.544c5.476-.47,11.616.36,17.163.007.856-.066,2.443,1.026,2.443,1.882v2.86H24.1a2.675,2.675,0,0,1,1.019-3.374A30.456,30.456,0,0,1,29.466.987c3.085-1.118,7.667-1.978,9.583,1.445a6.357,6.357,0,0,1,.674,1.837Zm-1.674,0V3.99a4.877,4.877,0,0,0-.413-.842c-1.713-2.843-6.613-1.1-9.028-.089A20.885,20.885,0,0,0,25.78,4.416a1.156,1.156,0,0,0,.2,1.744c.538.3,1.583.074,2.22.114.224-.077.893-2.051,1.412-2.494,1.866-1.6,5.069.183,5.234,2.513Zm-17.3,0c-.092-.719.335-2.879-.632-3.067L2.055,3.291A1.489,1.489,0,0,0,1.633,4.4a89.427,89.427,0,0,0,0,11.869c.059.712.123,1.092.91,1.183,2.073.24,4.557-.2,6.676.02.425.146,1.16,2.555,1.555,2.908a.626.626,0,0,0,.841,0c.394-.354,1.13-2.762,1.555-2.908,1.258-.282,6.414.352,7.208-.151.484-.306.5-2.844.242-3.019-.425-.095-.8-.041-1.24-.155a43.672,43.672,0,0,1-5.655-2.158,1.937,1.937,0,0,1,.16-3.426,46.721,46.721,0,0,1,5.851-2.24,5.317,5.317,0,0,1,1.015-.032m11.857,7.951-.131,1.613c-.452.059-1.438.286-1.544-.288a17.447,17.447,0,0,1,.032-3.038c.27-1.317,2.174-3.56,2.343-4.911A5.964,5.964,0,0,0,33.3,6.369c-.188-1.119-2.067-2.341-2.832-1.04-.947,1.61-3.294,6.846-3.436,8.568-.086,1.045.4,4.255,1.182,4.952.444.4,7.372,0,8.489.115.161-.039.191-.175.263-.3a9.106,9.106,0,0,0,1.085-4.426ZM27.447,7.966h-6.7V9.5h6.138Zm13.811,0H34.841A3.8,3.8,0,0,1,34.283,9.5h6.975Zm1.674,4.743h2.72a7.794,7.794,0,0,0,.954-.441,2.418,2.418,0,0,0-.053-3.947,5.483,5.483,0,0,0-.761-.355h-2.86ZM19.077,8.385c-1.265.473-3.016.867-4.187,1.463-.176.09-.615.306-.557.557l4.743,1.885Zm6.975,2.79h-5.3v1.535h4.883Zm15.206,0H33.516l-.767,1.535h8.51ZM38.05,23.73V21.01a2.335,2.335,0,0,0-.349-.349H27.517a3.264,3.264,0,0,0-.488.488V23.73Zm0,1.674H27.029v1.535H38.05Zm0,3.069H27.029V47.586H38.05Z" transform="translate(0 0)" fill="#19538d"/>
        <path id="Trazado_1277631" data-name="Trazado 1277631" d="M11.9,283.265H.741V272.1H11.9Zm-1.674-9.486H2.276v7.952h7.952Z" transform="translate(-0.638 -234.144)" fill="#19538d"/>
        <path id="Trazado_1277632" data-name="Trazado 1277632" d="M102.762,283.265H91.741V272.1h11.021Zm-9.486-1.535h7.952v-7.952H93.276Z" transform="translate(-78.942 -234.144)" fill="#19538d"/>
        <path id="Trazado_1277633" data-name="Trazado 1277633" d="M118.973,195.437a2.383,2.383,0,1,1-2.383-2.383,2.383,2.383,0,0,1,2.383,2.383m-1.587.009a.788.788,0,1,0-.788.788.788.788,0,0,0,.788-.788" transform="translate(-98.274 -166.122)" fill="#19538d"/>
        <path id="Trazado_1277634" data-name="Trazado 1277634" d="M28.206,195.476a2.38,2.38,0,1,1-2.38-2.38,2.38,2.38,0,0,1,2.38,2.38m-1.61,0a.79.79,0,1,0-.79.79.79.79,0,0,0,.79-.79" transform="translate(-20.175 -166.158)" fill="#19538d"/>
        <path id="Trazado_1277635" data-name="Trazado 1277635" d="M73.608,195.469a2.379,2.379,0,1,1-2.379-2.379,2.379,2.379,0,0,1,2.379,2.379m-1.574.01a.784.784,0,1,0-.784.784.784.784,0,0,0,.784-.784" transform="translate(-59.246 -166.153)" fill="#19538d"/>
        <path id="Trazado_1277636" data-name="Trazado 1277636" d="M31.693,80.778H23.741V79.1h7.743c.409.4.137,1.136.209,1.674" transform="translate(-20.429 -68.068)" fill="#19538d"/>
        <path id="Trazado_1277637" data-name="Trazado 1277637" d="M23.741,103.778V102.1h7.743l.187.231a1.767,1.767,0,0,1,.029.389c.03.346.069.839-.216,1.054Z" transform="translate(-20.429 -87.86)" fill="#19538d"/>
        <rect id="Rectángulo_461955" data-name="Rectángulo 461955" width="7.952" height="1.535" transform="translate(3.312 7.966)" fill="#19538d"/>
        <path id="Trazado_1277638" data-name="Trazado 1277638" d="M31.693,35.639H23.741V34.1h7.743c.4.368.146,1.036.209,1.535" transform="translate(-20.429 -29.346)" fill="#19538d"/>
        <path id="Trazado_1277639" data-name="Trazado 1277639" d="M24.474,292.352l1.183,1-3.693,4.539-2.152-2.28,1.036-.931.976.84Z" transform="translate(-17.049 -251.566)" fill="#19538d"/>
        <path id="Trazado_1277640" data-name="Trazado 1277640" d="M115.283,292.188l1.373.893-3.691,4.673-2.152-2.28,1.036-.931.977.839Z" transform="translate(-95.354 -251.426)" fill="#19538d"/>
      </g>
    </g>
  </g>
</svg>
