<svg xmlns="http://www.w3.org/2000/svg" xmlns:xlink="http://www.w3.org/1999/xlink" width="85" height="85" viewBox="0 0 85 85">
  <defs>
    <clipPath id="clip-path">
      <rect id="Rectángulo_461911" data-name="Rectángulo 461911" width="61.752" height="60.494" fill="#1e535a"/>
    </clipPath>
  </defs>
  <g id="Grupo_1212411" data-name="Grupo 1212411" transform="translate(-705.631 -410)">
    <path id="Sustracción_110" data-name="Sustracción 110" d="M15975.961,19829.512h85v85h-85Z" transform="translate(-15270.33 -19419.512)" fill="#ffde92"/>
    <g id="Grupo_1212412" data-name="Grupo 1212412" transform="translate(717.629 422)" clip-path="url(#clip-path)">
      <path id="Trazado_1277553" data-name="Trazado 1277553" d="M44.925,60.476l-27.832.018a3.526,3.526,0,0,1-3.743-3.608,3.615,3.615,0,0,1,3.9-3.405l3.242.01a24.853,24.853,0,0,0,1.728-8.75L4.642,44.683A5.006,5.006,0,0,1,0,39.761V4.973A5.036,5.036,0,0,1,4.85,0l53.3.007c2.1,0,3.6,2.107,3.6,4.025l0,35.386c0,2.615-1.912,5.254-4.682,5.263l-17.679.062a23.743,23.743,0,0,0,1.845,8.741l3.8.043a3.476,3.476,0,0,1-.112,6.949M22.83,4.194a1.915,1.915,0,0,1,1.807,1.938A2.969,2.969,0,0,0,26.29,8.819a2.839,2.839,0,0,0,3.226-.428,2.078,2.078,0,0,1,2.942-.2L35.1,10.822a1.992,1.992,0,0,1-.08,2.7,2.935,2.935,0,0,0-.617,3.364,3,3,0,0,0,2.765,1.738A1.986,1.986,0,0,1,39.1,20.662v3.406a2,2,0,0,1-1.944,2.015,2.976,2.976,0,0,0-2.033,5.194,2.216,2.216,0,0,1-.547,3.175l25.415,0,0-30.424A2.268,2.268,0,0,0,57.738,1.7l-52.67,0A3.416,3.416,0,0,0,1.741,5.3l0,29.165,5.45-.012c-1.155-1.082-1.314-2.32-.333-3.369a2.872,2.872,0,0,0,.546-3.236A3,3,0,0,0,4.651,26.09a1.984,1.984,0,0,1-1.932-1.837l-.005-3.78a1.958,1.958,0,0,1,1.932-1.847A3.01,3.01,0,0,0,7.4,16.87a2.781,2.781,0,0,0-.452-3.122,2.079,2.079,0,0,1-.227-2.935L9.366,8.171a1.945,1.945,0,0,1,2.621,0,3,3,0,0,0,3.3.743,2.968,2.968,0,0,0,1.864-2.676,1.97,1.97,0,0,1,1.936-2.061Zm.089,34.556a4.575,4.575,0,0,1,2.9-4.561,4.733,4.733,0,0,1,5.307,1.166l2.78-2.789a4.75,4.75,0,0,1,3.437-8.238V20.388a4.762,4.762,0,0,1-4.566-2.843,4.7,4.7,0,0,1,1.121-5.4l-2.784-2.8a4.741,4.741,0,0,1-8.234-3.422L18.9,5.933a4.631,4.631,0,0,1-2.929,4.585,4.72,4.72,0,0,1-5.293-1.167L7.9,12.138a4.761,4.761,0,0,1-3.439,8.248v3.938a4.766,4.766,0,0,1,3.432,8.268l2.818,2.748A4.686,4.686,0,0,1,16.247,34.3a4.762,4.762,0,0,1,2.686,4.51ZM59.963,36.18H32.835a2.071,2.071,0,0,1-3,.358,3.111,3.111,0,0,0-3.447-.693,3.072,3.072,0,0,0-1.786,2.9,1.968,1.968,0,0,1-2.032,1.8l-3.317.006a2.02,2.02,0,0,1-2.105-2.068,2.9,2.9,0,0,0-1.735-2.629,2.945,2.945,0,0,0-3.221.525,2.108,2.108,0,0,1-3.2-.2H1.736l.022,3.48A3.365,3.365,0,0,0,4.974,43H56.757a3.358,3.358,0,0,0,3.218-3.342ZM39.325,53.5a27.537,27.537,0,0,1-1.7-8.753l-13.668-.007a27.71,27.71,0,0,1-1.573,8.774Zm5.713,5.243a1.74,1.74,0,0,0,1.578-1.831,1.72,1.72,0,0,0-1.8-1.66l-28.094.005a1.708,1.708,0,0,0-1.6,1.927,1.763,1.763,0,0,0,1.8,1.568Z" transform="translate(0 0)" fill="#1e535a"/>
      <path id="Trazado_1277554" data-name="Trazado 1277554" d="M294.2,71.289a.969.969,0,0,1-.692,1.026.885.885,0,0,1-1.024-.745l0-11.158a2.824,2.824,0,0,1-1.971-2.654A2.732,2.732,0,0,1,292.465,55l.02-2.311a1,1,0,0,1,.677-.874c.417-.077,1.01.273,1.017.7l.043,2.49a2.754,2.754,0,0,1,1.947,2.754,2.839,2.839,0,0,1-1.974,2.652Zm.225-13.6a1.09,1.09,0,1,0-1.09,1.09,1.09,1.09,0,0,0,1.09-1.09" transform="translate(-237.447 -42.345)" fill="#1e535a"/>
      <path id="Trazado_1277555" data-name="Trazado 1277555" d="M260.054,71.4a.9.9,0,0,1-.849.914.939.939,0,0,1-.881-.907l.01-2.026a2.921,2.921,0,0,1-1.976-2.68,2.831,2.831,0,0,1,1.973-2.766V52.711a1.029,1.029,0,0,1,.695-.915c.281-.069,1.008.227,1.009.578l.024,11.559a2.861,2.861,0,0,1-.005,5.437Zm.233-4.748a1.089,1.089,0,1,0-1.089,1.089,1.089,1.089,0,0,0,1.089-1.089" transform="translate(-209.53 -42.326)" fill="#1e535a"/>
      <path id="Trazado_1277556" data-name="Trazado 1277556" d="M225.95,71.469a.859.859,0,0,1-.829.856.909.909,0,0,1-.892-.944l0-10.989a2.842,2.842,0,0,1-1.969-2.632,2.751,2.751,0,0,1,1.964-2.752l0-2.328a1.072,1.072,0,0,1,.719-.865.86.86,0,0,1,.988.7l.052,2.486a2.724,2.724,0,0,1,1.939,2.743,2.813,2.813,0,0,1-1.972,2.662Zm.235-13.778a1.09,1.09,0,1,0-1.09,1.09,1.09,1.09,0,0,0,1.09-1.09" transform="translate(-181.657 -42.341)" fill="#1e535a"/>
      <path id="Trazado_1277557" data-name="Trazado 1277557" d="M156.868,213.8l-4.649.02a1.212,1.212,0,0,1-.918-.645c-.118-.348.161-1.1.575-1.1l4.929-.03a.9.9,0,0,1,.939.8.958.958,0,0,1-.876.955" transform="translate(-123.641 -173.31)" fill="#1e535a"/>
      <path id="Trazado_1277558" data-name="Trazado 1277558" d="M76.566,73.619a10.9,10.9,0,1,1-10.9-10.9,10.9,10.9,0,0,1,10.9,10.9m-1.752,0a9.144,9.144,0,1,0-9.144,9.144,9.144,9.144,0,0,0,9.144-9.144" transform="translate(-44.77 -51.266)" fill="#1e535a"/>
      <path id="Trazado_1277559" data-name="Trazado 1277559" d="M72.1,108.443a1.089,1.089,0,0,1,.213,1.174c-.159.249-.853.507-1.123.319l-4.057-2.829a1.083,1.083,0,0,1-.348-.666,1.428,1.428,0,0,1,.4-.725l4.006-2.775a1.06,1.06,0,0,1,1.129.319,1.117,1.117,0,0,1-.3,1.234l-2.8,1.939Z" transform="translate(-54.586 -84.083)" fill="#1e535a"/>
      <path id="Trazado_1277560" data-name="Trazado 1277560" d="M132.714,109.817a1.06,1.06,0,0,1-1.2-.081,1.028,1.028,0,0,1,.076-1.281l2.9-2.029-2.774-1.943a1.147,1.147,0,0,1-.362-1.118.959.959,0,0,1,1.2-.419l3.987,2.756a1.246,1.246,0,0,1,.378.732,1.261,1.261,0,0,1-.386.7Z" transform="translate(-107.336 -84.069)" fill="#1e535a"/>
      <path id="Trazado_1277561" data-name="Trazado 1277561" d="M101.584,109.609a.936.936,0,0,1-1.316.378,1.011,1.011,0,0,1-.223-1.246l3.542-5.266a.993.993,0,0,1,1.293-.309.974.974,0,0,1,.2,1.236Z" transform="translate(-81.667 -84.217)" fill="#1e535a"/>
    </g>
  </g>
</svg>
